<?xml version="1.0" encoding="UTF-8"?>
<svg width="21px" height="15px" viewBox="0 0 21 15" version="1.1" xmlns="http://www.w3.org/2000/svg" xmlns:xlink="http://www.w3.org/1999/xlink">
    <title>􀈙</title>
    <g id="Start" stroke="none" stroke-width="1" fill="none" fill-rule="evenodd">
        <g id="Structure-Copy" transform="translate(-521.000000, -114.000000)" fill="#0F1419" fill-rule="nonzero">
            <g id="BODY" transform="translate(-53.000000, 0.000000)">
                <g id="Column" transform="translate(389.000000, 112.000000)">
                    <path d="M202.023438,10.109375 C202.533854,10.109375 203.016927,10.0091146 203.472656,9.80859375 C203.928385,9.60807292 204.330729,9.33333333 204.679688,8.984375 C205.028646,8.63541667 205.302083,8.23307292 205.5,7.77734375 C205.697917,7.32161458 205.796875,6.8359375 205.796875,6.3203125 C205.796875,5.79947917 205.699219,5.31119792 205.503906,4.85546875 C205.308594,4.39973958 205.03776,3.99739583 204.691406,3.6484375 C204.345052,3.29947917 203.942708,3.02604167 203.484375,2.828125 C203.026042,2.63020833 202.539063,2.53125 202.023438,2.53125 C201.502604,2.53125 201.014323,2.63151042 200.558594,2.83203125 C200.102865,3.03255208 199.700521,3.30598958 199.351563,3.65234375 C199.002604,3.99869792 198.729167,4.39973958 198.53125,4.85546875 C198.333333,5.31119792 198.234375,5.79947917 198.234375,6.3203125 C198.234375,6.84114583 198.333333,7.32942708 198.53125,7.78515625 C198.729167,8.24088542 199.002604,8.64322917 199.351563,8.9921875 C199.700521,9.34114583 200.102865,9.61458333 200.558594,9.8125 C201.014323,10.0104167 201.502604,10.109375 202.023438,10.109375 Z M200.578125,16.4375 C201.265625,16.4375 201.800781,16.2395833 202.183594,15.84375 C202.566406,15.4479167 202.757813,14.8619792 202.757813,14.0859375 L202.757813,11.0859375 C202.580729,11.1119792 202.367188,11.1263021 202.117188,11.1289062 C201.867188,11.1315104 201.632813,11.1171875 201.414063,11.0859375 L201.414063,13.9921875 C201.414063,14.3567708 201.31901,14.6328125 201.128906,14.8203125 C200.938802,15.0078125 200.666667,15.1015625 200.3125,15.1015625 L188.320313,15.1015625 C187.971354,15.1015625 187.701823,15.0078125 187.511719,14.8203125 C187.321615,14.6328125 187.226563,14.3541667 187.226563,13.984375 L187.226,8.227 L197.617188,8.2265625 C197.528646,8.0390625 197.454427,7.84375 197.394531,7.640625 C197.334635,7.4375 197.289063,7.22916667 197.257813,7.015625 L187.226,7.016 L187.226563,5.171875 C187.226563,4.82291667 187.317708,4.55859375 187.5,4.37890625 C187.682292,4.19921875 187.945313,4.109375 188.289063,4.109375 L189.765625,4.109375 C190.015625,4.109375 190.229167,4.14322917 190.40625,4.2109375 C190.583333,4.27864583 190.773438,4.39583333 190.976563,4.5625 L191.40625,4.921875 C191.572917,5.0625 191.734375,5.171875 191.890625,5.25 C192.046875,5.328125 192.217448,5.38411458 192.402344,5.41796875 C192.58724,5.45182292 192.804688,5.46875 193.054688,5.46875 L197.289063,5.46875 C197.325521,5.234375 197.375,5.01041667 197.4375,4.796875 C197.5,4.58333333 197.588542,4.36197917 197.703125,4.1328125 L193.40625,4.1328125 C193.151042,4.1328125 192.933594,4.09895833 192.753906,4.03125 C192.574219,3.96354167 192.385417,3.84895833 192.1875,3.6875 L191.757813,3.328125 C191.585938,3.19270833 191.423177,3.08333333 191.269531,3 C191.115885,2.91666667 190.947917,2.85807292 190.765625,2.82421875 C190.583333,2.79036458 190.367188,2.7734375 190.117188,2.7734375 L188.015625,2.7734375 C187.34375,2.7734375 186.820313,2.96614583 186.445313,3.3515625 C186.070313,3.73697917 185.882813,4.3125 185.882813,5.078125 L185.882813,14.0859375 C185.882813,14.8671875 186.083333,15.4544271 186.484375,15.8476562 C186.885417,16.2408854 187.479167,16.4375 188.265625,16.4375 L200.578125,16.4375 Z M202.023438,8.78125 C201.882813,8.78125 201.761719,8.73697917 201.660156,8.6484375 C201.558594,8.55989583 201.507813,8.4453125 201.507813,8.3046875 L201.507813,6.8046875 L200.117188,6.8046875 C199.981771,6.8046875 199.867188,6.75520833 199.773438,6.65625 C199.679688,6.55729167 199.632813,6.4453125 199.632813,6.3203125 C199.632813,6.18489583 199.679688,6.0703125 199.773438,5.9765625 C199.867188,5.8828125 199.981771,5.8359375 200.117188,5.8359375 L201.507813,5.8359375 L201.507813,4.3359375 C201.507813,4.19010417 201.558594,4.07421875 201.660156,3.98828125 C201.761719,3.90234375 201.882813,3.859375 202.023438,3.859375 C202.158854,3.859375 202.277344,3.90234375 202.378906,3.98828125 C202.480469,4.07421875 202.53125,4.19010417 202.53125,4.3359375 L202.53125,5.8359375 L203.921875,5.8359375 C204.057292,5.8359375 204.171875,5.8828125 204.265625,5.9765625 C204.359375,6.0703125 204.40625,6.18489583 204.40625,6.3203125 C204.40625,6.4453125 204.359375,6.55729167 204.265625,6.65625 C204.171875,6.75520833 204.057292,6.8046875 203.921875,6.8046875 L202.53125,6.8046875 L202.53125,8.3046875 C202.53125,8.4453125 202.480469,8.55989583 202.378906,8.6484375 C202.277344,8.73697917 202.158854,8.78125 202.023438,8.78125 Z" id="􀈙"></path>
                </g>
            </g>
        </g>
    </g>
</svg>