
<svg width="138px" height="48px" viewBox="0 0 138 48" version="1.1" xmlns="http://www.w3.org/2000/svg" xmlns:xlink="http://www.w3.org/1999/xlink">
    <g id="Update" stroke="none" stroke-width="1" fill="none" fill-rule="evenodd">
        <g id="Authorization" transform="translate(-952.000000, -623.000000)">
            <g id="Form" transform="translate(864.000000, 0.000000)">
                <g id="Appstore" transform="translate(88.000000, 623.000000)">
                    <rect id="Rectangle" fill="#F8F8F8" fill-rule="nonzero" x="0" y="0" width="138" height="48" rx="8"></rect>
                    <path d="M86.292,33.4776 C84.615,33.4776 83.3878,32.6494 83.2465,31.388 L81.295,31.3879 C81.4182,33.6886 83.3256,35.144 86.1507,35.144 C89.1701,35.144 91.0685,33.6536 91.0685,31.2738 C91.0685,29.4133 89.9826,28.3649 87.3689,27.7478 L85.9654,27.4036 C84.3234,26.9986 83.6522,26.4694 83.6522,25.5701 C83.6522,24.4418 84.7031,23.6665 86.2389,23.6665 C87.7746,23.6665 88.8255,24.4328 88.9407,25.7021 L90.8652,25.7021 C90.8031,23.5075 88.9577,22 86.2659,22 C83.5461,22 81.6306,23.5075 81.6306,25.7021 C81.6306,27.4747 82.7166,28.567 85.0558,29.1312 L86.7067,29.5283 C88.3577,29.9335 89.0549,30.5246 89.0549,31.512 C89.0549,32.6493 87.8989,33.4776 86.292,33.4776 Z" id="Path" fill="#2B2D33" fill-rule="nonzero"></path>
                    <path d="M48.2228,31.4939 L53.0785,31.4939 L54.2436,34.9319 L56.3353,34.9319 L51.7361,22.212 L49.5992,22.212 L45,34.9319 L47.0567,34.9319 L48.2228,31.4939 Z M52.5746,29.9074 L48.7257,29.9074 L50.6241,24.3276 L50.6772,24.3276 L52.5746,29.9074 Z" id="Shape" fill="#2B2D33"></path>
                    <path d="M62.3918,35.0291 C64.723,35.0291 66.2677,33.1775 66.2677,30.2956 C66.2677,27.4217 64.7139,25.5612 62.3567,25.5612 C61.7614,25.542 61.172,25.6843 60.6513,25.973 C60.1305,26.2617 59.6979,26.686 59.3994,27.2007 L59.3644,27.2007 L59.3644,25.6582 L57.519,25.6582 L57.519,38 L59.4254,38 L59.4254,33.4066 L59.4696,33.4066 C59.7549,33.9237 60.1803,34.3502 60.6972,34.6372 C61.214,34.9241 61.8013,35.0599 62.3918,35.0291 Z M61.8538,27.1837 C63.3365,27.1837 64.3082,28.4181 64.3082,30.2956 C64.3082,32.1902 63.3365,33.4156 61.8538,33.4156 C60.3972,33.4156 59.4174,32.1642 59.4174,30.2956 C59.4174,28.4441 60.3972,27.1837 61.8538,27.1837 Z" id="Shape" fill="#2B2D33"></path>
                    <path d="M76.4907,30.2956 C76.4907,33.1775 74.946,35.0291 72.6148,35.0291 C72.0243,35.0599 71.437,34.9241 70.9202,34.6371 C70.4034,34.3502 69.9779,33.9237 69.6926,33.4066 L69.6484,33.4066 L69.6484,38 L67.742,38 L67.742,25.6582 L69.5873,25.6582 L69.5873,27.2007 L69.6224,27.2007 C69.9209,26.686 70.3535,26.2617 70.8742,25.973 C71.395,25.6843 71.9844,25.542 72.5797,25.5612 C74.937,25.5612 76.4907,27.4217 76.4907,30.2956 Z M74.5312,30.2956 C74.5312,28.418 73.5595,27.1837 72.0768,27.1837 C70.6202,27.1837 69.6405,28.444 69.6405,30.2956 C69.6405,32.1642 70.6202,33.4156 72.0768,33.4156 C73.5595,33.4156 74.5312,32.1902 74.5312,30.2956 Z" id="Shape" fill="#2B2D33"></path>
                    <path d="M95.1826,23.4634 L95.1826,25.6581 L96.9488,25.6581 L96.9488,27.1656 L95.1826,27.1656 L95.1826,32.2782 C95.1826,33.0724 95.5363,33.4425 96.3126,33.4425 C96.5223,33.4389 96.7316,33.4242 96.9398,33.3985 L96.9398,34.8969 C96.5907,34.9621 96.2359,34.9916 95.8809,34.985 C94.0005,34.985 93.2672,34.2797 93.2672,32.4812 L93.2672,27.1656 L91.9168,27.1656 L91.9168,25.6581 L93.2672,25.6581 L93.2672,23.4634 L95.1826,23.4634 Z" id="Path" fill="#2B2D33" fill-rule="nonzero"></path>
                    <path d="M102.377,25.5441 C99.6934,25.5441 97.9723,27.3776 97.9723,30.2955 C97.9723,33.2214 99.6763,35.047 102.377,35.047 C105.079,35.047 106.783,33.2214 106.783,30.2955 C106.783,27.3776 105.07,25.5441 102.377,25.5441 Z M102.377,27.1126 C103.922,27.1126 104.841,28.2939 104.841,30.2955 C104.841,32.3052 103.922,33.4775 102.377,33.4775 C100.832,33.4775 99.9148,32.3052 99.9148,30.2955 C99.9148,28.3029 100.832,27.1126 102.377,27.1126 Z" id="Shape" fill="#2B2D33"></path>
                    <path d="M108.354,25.6583 L110.173,25.6583 L110.173,27.2368 L110.217,27.2368 C110.34,26.7438 110.629,26.3081 111.036,26.003 C111.443,25.6979 111.942,25.5419 112.451,25.5613 C112.67,25.5605 112.89,25.5843 113.104,25.6323 L113.104,27.4128 C112.827,27.3282 112.537,27.2894 112.247,27.2978 C111.97,27.2866 111.694,27.3354 111.438,27.4407 C111.182,27.5461 110.951,27.7056 110.763,27.9084 C110.574,28.1111 110.431,28.3521 110.345,28.615 C110.258,28.878 110.229,29.1565 110.261,29.4315 L110.261,34.9322 L108.354,34.9322 L108.354,25.6583 Z" id="Path" fill="#2B2D33" fill-rule="nonzero"></path>
                    <path d="M117.895,35.047 C119.995,35.047 121.637,33.8916 121.894,32.2081 L120.084,32.2081 C119.914,32.6272 119.614,32.9805 119.228,33.2155 C118.841,33.4505 118.389,33.5547 117.939,33.5125 C117.596,33.5251 117.254,33.4647 116.936,33.3354 C116.619,33.206 116.332,33.0106 116.096,32.7621 C115.859,32.5137 115.679,32.2179 115.566,31.8944 C115.453,31.5708 115.41,31.227 115.44,30.8857 L115.44,30.7707 L122,30.7707 L122,30.1185 C122,27.3066 120.384,25.5441 117.814,25.5441 C115.202,25.5441 113.516,27.4307 113.516,30.3396 C113.516,33.2394 115.193,35.047 117.895,35.047 Z M120.093,29.4403 L115.448988,29.4403 C115.448,29.1303 115.509,28.8232 115.628,28.5368 C115.747,28.2503 115.921,27.9902 116.141,27.7713 C116.361,27.5525 116.622,27.3793 116.909,27.2618 C117.196,27.1443 117.504,27.0847 117.814,27.0865 C118.122,27.0799 118.428,27.1369 118.713,27.2539 C118.997,27.3709 119.255,27.5454 119.469,27.7664 C119.682,27.9874 119.848,28.2502 119.956,28.5382 C120.063,28.8263 120.11,29.1334 120.093,29.4403 Z" id="Shape" fill="#2B2D33"></path>
                    <path d="M31.6235,9 C31.7383,10.5095 31.2644,12.0046 30.3025,13.1677 C29.8418,13.7448 29.2572,14.2091 28.5927,14.5256 C27.9281,14.8421 27.2009,15.0026 26.4658,14.995 C26.4189,14.2691 26.5145,13.541 26.7471,12.8524 C26.9797,12.1637 27.3448,11.528 27.8215,10.9815 C28.7964,9.86299 30.1539,9.15548 31.6235,9 Z" id="Path" fill="#2B2D33" fill-rule="nonzero"></path>
                    <path d="M34.3037,19.9862 C33.8153,20.853 33.5525,21.8301 33.5397,22.8267 C33.5409,23.9477 33.8697,25.0435 34.485,25.9775 C35.1004,26.9116 35.975,27.6425 37,28.0792 C36.597,29.3979 35.9896,30.6441 35.2002,31.7716 C34.14,33.369 33.0285,34.9297 31.2643,34.9585 C30.4252,34.978 29.8588,34.735 29.2687,34.4817 C28.653,34.2176 28.0116,33.9423 27.0077,33.9423 C25.9431,33.9423 25.2729,34.2264 24.6265,34.5005 C24.0679,34.7373 23.5271,34.9665 22.765,34.9984 C21.0848,35.0611 19.8008,33.2934 18.7021,31.711 C16.5061,28.4793 14.7962,22.6037 17.0886,18.6057 C17.6178,17.6478 18.3843,16.8443 19.3135,16.2735 C20.2427,15.7027 21.3027,15.3841 22.3905,15.3487 C23.3434,15.3289 24.2578,15.6989 25.0595,16.0232 C25.6725,16.2713 26.2197,16.4927 26.6678,16.4927 C27.0616,16.4927 27.5935,16.28 28.2134,16.0322 C29.1899,15.6418 30.3846,15.1642 31.6022,15.2929 C32.5353,15.3223 33.4487,15.5705 34.27,16.0177 C35.0912,16.4649 35.7976,17.0989 36.333,17.8692 C35.4902,18.3911 34.792,19.1194 34.3037,19.9862 Z" id="Path" fill="#2B2D33" fill-rule="nonzero"></path>
                    <path d="M46.414,12.365 L47.458,12.365 C47.566,11.825 48.025,11.519 48.682,11.519 C49.33,11.519 49.762,11.861 49.762,12.401 C49.762,12.914 49.42,13.292 48.682,13.292 L47.863,13.292 L47.863,14.228 L48.772,14.228 C49.483,14.228 49.996,14.507 49.996,15.155 C49.996,15.758 49.528,16.145 48.772,16.145 C47.98,16.145 47.521,15.758 47.413,15.236 L46.351,15.236 C46.468,16.406 47.413,17.108 48.772,17.108 C50.149,17.108 51.085,16.316 51.085,15.173 C51.085,14.237 50.383,13.787 49.96,13.679 C50.401,13.526 50.851,13.049 50.851,12.329 C50.851,11.285 49.996,10.556 48.691,10.556 C47.548,10.556 46.531,11.177 46.414,12.365 Z M54.7876,13.958 L54.7876,14.219 L53.6716,14.219 C52.5286,14.219 51.8266,14.759 51.8266,15.668 C51.8266,16.568 52.5286,17.108 53.4196,17.108 C54.0136,17.108 54.5176,16.883 54.8416,16.478 L54.8416,17 L55.7956,17 L55.7956,13.976 C55.7956,12.905 55.0486,12.302 53.9236,12.302 C52.7986,12.302 52.1416,12.932 52.0066,13.679 L52.9786,13.679 C53.0776,13.391 53.3566,13.148 53.8876,13.148 C54.4006,13.148 54.7876,13.418 54.7876,13.958 Z M53.6446,16.271 C53.1856,16.271 52.8616,16.046 52.8616,15.632 C52.8616,15.218 53.2216,14.993 53.7436,14.993 L54.7876,14.993 L54.7876,15.272 C54.7876,15.893 54.2566,16.271 53.6446,16.271 Z M60.1509,13.31 L60.1509,12.41 L57.0009,12.41 L57.0009,17 L58.0269,17 L58.0269,13.31 L60.1509,13.31 Z M63.4734,12.302 C62.7444,12.302 62.2764,12.635 62.0514,13.004 L62.0514,12.41 L61.0614,12.41 L61.0614,18.719 L62.0874,18.719 L62.0874,16.487 C62.3034,16.82 62.7714,17.108 63.4464,17.108 C64.5354,17.108 65.5074,16.28 65.5074,14.705 C65.5074,13.13 64.5444,12.302 63.4734,12.302 Z M63.2754,16.199 C62.5464,16.199 62.0604,15.623 62.0604,14.723 L62.0604,14.687 C62.0604,13.787 62.5464,13.211 63.2754,13.211 C63.9954,13.211 64.4724,13.814 64.4724,14.705 C64.4724,15.605 63.9954,16.199 63.2754,16.199 Z M69.3844,12.41 L68.1784,15.695 L66.9724,12.41 L65.8654,12.41 L67.6294,16.919 L66.9184,18.719 L68.0164,18.719 L70.4914,12.41 L69.3844,12.41 Z M70.988,13.697 L71.969,13.697 C72.05,13.382 72.347,13.148 72.833,13.148 C73.274,13.148 73.571,13.346 73.571,13.697 C73.571,14.057 73.301,14.264 72.824,14.264 L72.203,14.264 L72.203,15.074 L72.878,15.074 C73.436,15.074 73.733,15.254 73.733,15.632 C73.733,16.037 73.391,16.262 72.869,16.262 C72.374,16.262 72.005,16.046 71.906,15.65 L70.907,15.65 C71.024,16.577 71.807,17.108 72.869,17.108 C73.985,17.108 74.759,16.532 74.759,15.677 C74.759,14.993 74.264,14.696 73.913,14.615 C74.237,14.48 74.579,14.183 74.579,13.616 C74.579,12.815 73.85,12.302 72.887,12.302 C71.915,12.302 71.087,12.788 70.988,13.697 Z M79.825,12.41 L78.835,12.41 L76.756,15.47 L76.756,12.41 L75.748,12.41 L75.748,17 L76.738,17 L78.817,13.949 L78.817,17 L79.825,17 L79.825,12.41 Z M80.7053,13.31 L82.1723,13.31 L82.1723,17 L83.1983,17 L83.1983,13.31 L84.6653,13.31 L84.6653,12.41 L80.7053,12.41 L80.7053,13.31 Z M89.395,15.002 L89.395,14.579 C89.395,13.193 88.576,12.302 87.316,12.302 C86.02,12.302 85.111,13.22 85.111,14.714 C85.111,16.199 86.02,17.108 87.379,17.108 C88.63,17.108 89.224,16.343 89.341,15.758 L88.333,15.758 C88.261,15.965 87.946,16.253 87.397,16.253 C86.659,16.253 86.164,15.713 86.164,15.02 L86.164,15.002 L89.395,15.002 Z M87.307,13.157 C87.946,13.157 88.342,13.562 88.369,14.228 L86.173,14.228 C86.236,13.58 86.659,13.157 87.307,13.157 Z M92.3329,17 L94.4839,17 C95.5279,17 96.0949,16.433 96.0949,15.695 C96.0949,15.065 95.6989,14.696 95.2669,14.579 C95.5999,14.453 95.9059,14.129 95.9059,13.598 C95.9059,12.932 95.4199,12.41 94.3939,12.41 L92.3329,12.41 L92.3329,17 Z M94.3579,15.038 C94.8259,15.038 95.0689,15.245 95.0689,15.614 C95.0689,15.983 94.8259,16.208 94.3579,16.208 L93.3409,16.208 L93.3409,15.038 L94.3579,15.038 Z M94.2679,13.202 C94.6819,13.202 94.8979,13.382 94.8979,13.724 C94.8979,14.057 94.6729,14.264 94.2679,14.264 L93.3409,14.264 L93.3409,13.202 L94.2679,13.202 Z" id="Shape" fill="#2B2D33" fill-rule="nonzero"></path>
                </g>
            </g>
        </g>
    </g>
</svg>
