<?xml version="1.0" encoding="UTF-8"?>
<svg width="24px" height="24px" viewBox="0 0 24 24" version="1.1" xmlns="http://www.w3.org/2000/svg" xmlns:xlink="http://www.w3.org/1999/xlink">
    <circle id="Oval" fill="#1790FF" cx="12" cy="12" r="12"></circle>
    <path d="M13.0005477,16.9803269 C13.1737248,16.9803269 13.3286727,16.9142461 13.4653914,16.7820847 L17.7515242,12.5027878 C17.8928003,12.3706264 17.9634383,12.2088425 17.9634383,12.0174363 C17.9634383,11.8305873 17.8928003,11.6688034 17.7515242,11.5320847 L13.4858992,7.27329563 C13.4084253,7.19582168 13.329812,7.13999485 13.2500594,7.10581517 C13.1703068,7.07163548 13.0871362,7.05454563 13.0005477,7.05454563 C12.818256,7.05454563 12.6655867,7.11379043 12.5425399,7.23228001 C12.419493,7.35076959 12.3579695,7.50116022 12.3579695,7.68345189 C12.3579695,7.77459772 12.3739201,7.86004694 12.4058211,7.93979954 C12.4377222,8.01955215 12.4832951,8.08905084 12.5425399,8.14829563 L13.9985945,9.62485813 L16.0041883,11.4592175 L14.4839461,11.3680222 L6.48589923,11.3680222 C6.29449298,11.3680222 6.13726641,11.4284063 6.01421954,11.5491745 C5.89117267,11.6699428 5.82964923,11.82603 5.82964923,12.0174363 C5.82964923,12.2133998 5.89117267,12.3717657 6.01421954,12.4925339 C6.13726641,12.6133021 6.29449298,12.6736863 6.48589923,12.6736863 L14.4839461,12.6736863 L16.0111883,12.5832175 L13.9985945,14.4168503 L12.5425399,15.8934128 C12.4832951,15.9526576 12.4377222,16.0221563 12.4058211,16.1019089 C12.3739201,16.1816615 12.3579695,16.2671107 12.3579695,16.3582566 C12.3579695,16.5359909 12.419493,16.6841029 12.5425399,16.8025925 C12.6655867,16.9210821 12.818256,16.9803269 13.0005477,16.9803269 Z" id="􀄫" fill="#FFFFFF"></path>
</svg>
