<?xml version="1.0" encoding="UTF-8"?>
<svg width="211px" height="44px" viewBox="0 0 211 44" version="1.1" xmlns="http://www.w3.org/2000/svg" xmlns:xlink="http://www.w3.org/1999/xlink">
    <title>logo-1@2x</title>
    <g id="Page-1" stroke="none" stroke-width="1" fill="none" fill-rule="evenodd">
        <g id="Select" transform="translate(-955.000000, -58.000000)" fill="#000000" fill-rule="nonzero">
            <g id="logo-1" transform="translate(955.000000, 58.776000)">
                <path d="M130.793276,6.92814537 C129.233297,5.87286495 127.398026,5.64345617 125.608638,5.64345617 C119.276955,5.64345617 114.138199,10.0481049 114.138199,17.1138955 C114.138199,24.1796862 118.542847,28.4925714 125.608638,28.4925714 C128.407425,28.4925714 131.343858,29.9149059 131.343858,33.0348654 C131.343858,36.1548249 128.820361,37.8983317 125.608638,37.8983317 C122.396915,37.8983317 119.689891,35.9712978 119.689891,33.0348654 L114.138199,33.0348654 C114.138199,39.1371391 119.047547,43.128852 125.608638,43.128852 C132.169729,43.128852 136.941432,39.2747844 136.941432,33.0348654 C136.941432,30.1443146 136.023797,27.437291 132.261493,25.5561389 C135.977915,23.8585139 137.033196,19.9126827 137.033196,17.1138955 C137.033196,14.6362806 136.390851,12.3880745 134.647344,10.4151589 L137.170841,7.20343592 L133.041483,4.08347641 L130.793276,6.92814537 Z M125.608638,10.7363312 C128.820361,10.7363312 131.481503,13.2139461 131.481503,17.1138955 C131.481503,21.0138449 128.820361,23.3996963 125.608638,23.3996963 C122.351033,23.3996963 119.689891,21.0597267 119.689891,17.1138955 C119.689891,13.1680644 122.351033,10.7363312 125.608638,10.7363312 Z" id="Shape"></path>
                <path d="M140.738147,6.37756429 L140.738147,18.2609395 C140.738147,25.2808484 144.683979,29.3643248 150.098026,29.3643248 C153.263867,29.3643248 155.42031,28.2631626 157.760279,25.9690747 L158.127333,29.0431525 L163.128445,29.0431525 L163.128445,6.37756429 L157.576752,6.37756429 L157.576752,17.9397672 C157.576752,21.380899 155.236783,24.2714497 151.795651,24.2714497 C148.216874,24.2714497 146.335722,21.6561895 146.335722,18.2150577 L146.335722,6.37756429 L140.738147,6.37756429 Z" id="Path"></path>
                <path d="M168.066469,6.37756429 L168.066469,28.9972707 L173.664044,28.9972707 L173.664044,17.0680138 C173.664044,12.8927738 176.372501,11.3327941 179.308934,11.3327941 C181.144204,11.3327941 182.199484,11.8374934 183.346528,12.8010103 L185.868591,7.93754404 C184.629784,6.69873659 182.383011,5.78110144 180.043042,5.78110144 C177.748954,5.78110144 175.40755,6.19403726 173.664044,8.99282446 L173.252542,6.37756429 L168.066469,6.37756429 Z" id="Path"></path>
                <path d="M188.546939,6.37756429 L188.546939,18.2609395 C188.546939,25.2808484 192.49277,29.3643248 197.906817,29.3643248 C201.072658,29.3643248 203.229101,28.2631626 205.569071,25.9690747 L205.936125,29.0431525 L210.937236,29.0431525 L210.937236,6.37756429 L205.385544,6.37756429 L205.385544,17.9397672 C205.385544,21.380899 203.045574,24.2714497 199.604442,24.2714497 C196.025665,24.2714497 194.144513,21.6561895 194.144513,18.2150577 L194.144513,6.37756429 L188.546939,6.37756429 Z" id="Path"></path>
                <path d="M18.9950476,9.49752379 C17.7103584,7.24931768 14.8198077,5.8269832 11.7916117,5.8269832 C5.18463859,5.78110144 0,9.86457785 0,17.6644766 C0,25.6020207 4.9552298,29.7313788 11.6539664,29.6854971 C14.1774631,29.6396153 17.7103584,28.3549261 18.9950476,25.6937842 L19.2703381,28.9972707 L24.5467402,28.9972707 L24.5467402,6.37756429 L19.1785746,6.37756429 L18.9950476,9.49752379 Z M12.296311,10.8280948 C21.1056084,10.8280948 21.1056084,24.5467402 12.296311,24.5467402 C8.57988864,24.5467402 5.59757441,21.9773618 5.59757441,17.6644766 C5.59757441,13.3515914 8.57988864,10.8280948 12.296311,10.8280948 Z" id="Shape"></path>
                <path d="M30.5959632,0.596462847 L30.5959632,6.42344604 L26.3748415,6.42344604 L26.3748415,11.2410306 L30.5959632,11.2410306 L30.5959632,21.0138449 C30.5959632,26.6573011 33.8076862,29.4560883 38.7170343,29.2725613 C40.4146593,29.2266795 41.7452303,28.9513889 43.3510918,28.3090443 L41.791112,23.5373416 C40.9652404,23.9502774 39.9558417,24.2255679 39.0840883,24.2255679 C37.3405815,24.2255679 36.1476558,23.1702875 36.1476558,21.0138449 L36.1476558,11.2410306 L42.4334566,11.2410306 L42.4334566,6.42344604 L36.1935376,6.42344604 L36.1935376,0 L30.5959632,0.596462847 Z" id="Path"></path>
                <path d="M67.2741269,28.9972707 L67.2741269,16.8844867 C67.2741269,13.9021725 69.1552789,11.2869123 72.1834749,11.2869123 C75.2116709,11.2869123 76.4504783,13.810409 76.4504783,16.7927232 L76.4504783,28.9972707 L82.0480528,28.9972707 L82.0480528,16.7927232 C82.0480528,10.0022231 78.8822115,6.05639198 72.4587654,6.05639198 C69.522333,6.05639198 66.9070728,6.97402713 64.8882755,10.1857502 C63.6035863,7.06579065 60.8965626,5.96462847 58.1895389,5.96462847 C56.0330963,5.96462847 53.4178361,6.7905001 52.2249104,9.08458797 L51.8119746,6.33168253 L46.627336,6.33168253 L46.627336,28.9972707 L52.2249104,28.9972707 L52.2249104,16.8844867 C52.2249104,13.9021725 54.014299,11.1951488 57.0424949,11.1951488 C60.1165727,11.1951488 61.6765524,13.9021725 61.6765524,16.8844867 L61.6765524,28.9972707 L67.2741269,28.9972707 Z" id="Path"></path>
                <path d="M104.516572,9.49752379 C103.231882,7.24931768 100.341332,5.8269832 97.3131358,5.8269832 C90.7061627,5.78110144 85.5215241,9.86457785 85.5215241,17.6644766 C85.5215241,25.6020207 90.4767539,29.7313788 97.1754905,29.6854971 C99.6989872,29.6396153 103.231882,28.3549261 104.516572,25.6937842 L104.791862,28.9972707 L110.068264,28.9972707 L110.068264,6.37756429 L104.700099,6.37756429 L104.516572,9.49752379 Z M97.8178351,10.8280948 C106.627133,10.8280948 106.627133,24.5467402 97.8178351,24.5467402 C94.1014127,24.5467402 91.1190985,21.9773618 91.1190985,17.6644766 C91.1190985,13.3515914 94.1014127,10.8280948 97.8178351,10.8280948 Z" id="Shape"></path>
            </g>
        </g>
    </g>
</svg>