<svg width="192" height="47" viewBox="0 0 192 47" fill="none" xmlns="http://www.w3.org/2000/svg">
<path d="M69.4187 19.2297C68.602 17.7432 66.7646 16.8028 64.8396 16.8028C60.6397 16.7724 57.3439 19.4724 57.3439 24.6297C57.3439 29.878 60.4938 32.6084 64.7521 32.578C66.3562 32.5477 68.602 31.6983 69.4187 29.9387L69.5937 32.123H72.9478V17.1668H69.5353L69.4187 19.2297ZM65.1604 20.1095C70.7603 20.1095 70.7603 29.1803 65.1604 29.1803C62.798 29.1803 60.9021 27.4814 60.9021 24.6297C60.9021 21.778 62.798 20.1095 65.1604 20.1095Z" fill="#1D1D1D"/>
<path d="M76.7932 13.3443V17.1971H74.1099V20.3825H76.7932V26.8443C76.7932 30.5758 78.8348 32.4263 81.9556 32.305C83.0347 32.2747 83.8806 32.0926 84.9014 31.6679L83.9097 28.5129C83.3847 28.7859 82.7431 28.9679 82.1889 28.9679C81.0806 28.9679 80.3223 28.2702 80.3223 26.8443V20.3825H84.3181V17.1971H80.3515V12.95L76.7932 13.3443Z" fill="#1D1D1D"/>
<path d="M100.109 32.123V24.114C100.109 22.1421 101.305 20.4129 103.23 20.4129C105.155 20.4129 105.942 22.0814 105.942 24.0533V32.123H109.501V24.0533C109.501 19.5634 107.488 16.9544 103.405 16.9544C101.538 16.9544 99.8757 17.5612 98.5924 19.6848C97.7758 17.6219 96.055 16.8938 94.3341 16.8938C92.9633 16.8938 91.3009 17.4398 90.5425 18.9567L90.28 17.1365H86.9843V32.123H90.5425V24.114C90.5425 22.1421 91.68 20.3522 93.605 20.3522C95.5591 20.3522 96.5508 22.1421 96.5508 24.114V32.123H100.109Z" fill="#1D1D1D"/>
<path d="M124.419 19.2297C123.602 17.7432 121.765 16.8028 119.84 16.8028C115.64 16.7724 112.344 19.4724 112.344 24.6297C112.344 29.878 115.494 32.6084 119.752 32.578C121.356 32.5477 123.602 31.6983 124.419 29.9387L124.594 32.123H127.948V17.1668H124.535L124.419 19.2297ZM120.16 20.1095C125.76 20.1095 125.76 29.1803 120.16 29.1803C117.798 29.1803 115.902 27.4814 115.902 24.6297C115.902 21.778 117.798 20.1095 120.16 20.1095Z" fill="#1D1D1D"/>
<path d="M140.82 17.5308C139.828 16.8331 138.661 16.6814 137.524 16.6814C133.499 16.6814 130.232 19.5938 130.232 24.2657C130.232 28.9376 133.032 31.7893 137.524 31.7893C139.303 31.7893 141.17 32.7297 141.17 34.7926C141.17 36.8556 139.565 38.0084 137.524 38.0084C135.482 38.0084 133.761 36.7342 133.761 34.7926H130.232C130.232 38.8275 133.353 41.4668 137.524 41.4668C141.695 41.4668 144.728 38.9185 144.728 34.7926C144.728 32.8814 144.145 31.0915 141.753 29.8477C144.115 28.7252 144.786 26.1162 144.786 24.2657C144.786 22.6275 144.378 21.141 143.27 19.8365L144.874 17.7129L142.249 15.6499L140.82 17.5308ZM137.524 20.0488C139.565 20.0488 141.257 21.687 141.257 24.2657C141.257 26.8443 139.565 28.4219 137.524 28.4219C135.453 28.4219 133.761 26.8747 133.761 24.2657C133.761 21.6567 135.453 20.0488 137.524 20.0488Z" fill="#1D1D1D"/>
<path d="M147.142 17.1668V25.0241C147.142 29.6657 149.65 32.3657 153.092 32.3657C155.104 32.3657 156.475 31.6376 157.962 30.1207L158.196 32.1533H161.375V17.1668H157.846V24.8117C157.846 27.087 156.358 28.9983 154.171 28.9983C151.896 28.9983 150.7 27.269 150.7 24.9938V17.1668H147.142Z" fill="#1D1D1D"/>
<path d="M164.514 17.1668V32.123H168.072V24.2353C168.072 21.4747 169.793 20.4432 171.66 20.4432C172.826 20.4432 173.497 20.7769 174.226 21.414L175.83 18.1983C175.043 17.3792 173.614 16.7724 172.126 16.7724C170.668 16.7724 169.181 17.0455 168.072 18.896L167.81 17.1668H164.514Z" fill="#1D1D1D"/>
<path d="M177.533 17.1668V25.0241C177.533 29.6657 180.041 32.3657 183.482 32.3657C185.495 32.3657 186.866 31.6376 188.353 30.1207L188.587 32.1533H191.766V17.1668H188.237V24.8117C188.237 27.087 186.749 28.9983 184.562 28.9983C182.287 28.9983 181.091 27.269 181.091 24.9938V17.1668H177.533Z" fill="#1D1D1D"/>
<circle cx="23.842" cy="23.835" r="22.875" fill="#D9F94B"/>
<path d="M34.1866 32.7713C36.1057 30.5243 35.8399 27.147 33.5929 25.2279C31.3459 23.3088 27.9686 23.5746 26.0495 25.8216C24.1303 28.0686 24.3961 31.4459 26.6432 33.365C28.8902 35.2841 32.2675 35.0183 34.1866 32.7713Z" fill="#1D1D1D"/>
<path d="M30.9267 8.14807C31.6239 8.74304 32.1565 9.5071 32.4735 10.367C32.7906 11.2269 32.8814 12.1539 32.7373 13.059C32.5933 13.9641 32.2191 14.817 31.6508 15.536C31.0824 16.255 30.3389 16.8159 29.4915 17.165L29.3418 17.2243L26.6837 18.2962C24.8808 19.0198 22.7061 19.371 20.9306 21.4499C19.3834 23.2614 19.1408 26.0111 18.705 27.84L18.0675 30.4506L18.0396 30.5735C17.8279 31.4659 17.3904 32.2889 16.7692 32.9637C16.148 33.6384 15.3639 34.1422 14.492 34.4268C13.6201 34.7114 12.6897 34.7672 11.79 34.5889C10.8904 34.4106 10.0516 34.0041 9.35418 33.4084C8.65676 32.8128 8.12408 32.0479 7.80721 31.1872C7.49034 30.3266 7.39991 29.3989 7.5446 28.4932C7.68929 27.5875 8.06424 26.7342 8.6335 26.0151C9.20276 25.296 9.94723 24.7352 10.7955 24.3865L10.8082 24.3716L10.8814 24.3461L11.2337 24.2214L13.8354 23.3142C15.501 22.73 17.5876 22.0394 19.2852 20.0518C19.9229 19.3052 21.005 15.7316 21.3887 14.2471L22.2374 10.9768C22.4496 10.0855 22.8872 9.26354 23.5082 8.5898C24.1291 7.91606 24.9127 7.41307 25.7838 7.12904C26.655 6.845 27.5845 6.78943 28.4832 6.96765C29.382 7.14588 30.2199 7.55192 30.9167 8.14688L30.9267 8.14807Z" fill="#1D1D1D"/>
</svg>
