<svg width="21" height="16" viewBox="0 0 21 16" fill="none" xmlns="http://www.w3.org/2000/svg">
<path d="M2.91309 15.9775H18.0869C19.8135 15.9775 20.6934 15.1143 20.6934 13.4043V4.71338C20.6934 3.00342 19.8135 2.14844 18.0869 2.14844H15.7129C15.0571 2.14844 14.8579 2.01562 14.4844 1.60059L13.8203 0.853516C13.4053 0.396973 12.9819 0.147949 12.127 0.147949H8.81494C7.95996 0.147949 7.53662 0.396973 7.12158 0.853516L6.45752 1.60059C6.08398 2.00732 5.87646 2.14844 5.229 2.14844H2.91309C1.17822 2.14844 0.306641 3.00342 0.306641 4.71338V13.4043C0.306641 15.1143 1.17822 15.9775 2.91309 15.9775ZM10.5 13.5288C7.98486 13.5288 5.96777 11.52 5.96777 8.98828C5.96777 6.46484 7.98486 4.45605 10.5 4.45605C13.0151 4.45605 15.0239 6.46484 15.0239 8.98828C15.0239 11.52 13.0068 13.5288 10.5 13.5288ZM15.5801 5.93359C15.5801 5.36914 16.0781 4.87109 16.6592 4.87109C17.2319 4.87109 17.7217 5.36914 17.7217 5.93359C17.7217 6.52295 17.2319 6.99609 16.6592 7.00439C16.0781 7.00439 15.5801 6.53125 15.5801 5.93359ZM10.5 12.2671C12.3096 12.2671 13.7705 10.8145 13.7705 8.98828C13.7705 7.17041 12.3096 5.70947 10.5 5.70947C8.69043 5.70947 7.22119 7.17041 7.22119 8.98828C7.22119 10.8145 8.69873 12.2671 10.5 12.2671Z" fill="white"/>
</svg>
