<?xml version="1.0" encoding="UTF-8"?>
<svg width="15px" height="13px" viewBox="0 0 15 13" version="1.1" xmlns="http://www.w3.org/2000/svg" xmlns:xlink="http://www.w3.org/1999/xlink">
    <title>Shape</title>
    <g id="Start" stroke="none" stroke-width="1" fill="none" fill-rule="evenodd">
        <g id="Structure-Copy" transform="translate(-341.000000, -332.000000)" fill="#0F1419" fill-rule="nonzero">
            <g id="􀯡" transform="translate(341.529785, 332.750023)">
                <path d="M1.90518951,11.7256088 L12.154274,11.7256088 C12.7877833,11.7256088 13.2636922,11.5694135 13.5820007,11.2570229 C13.9003092,10.9446322 14.0594635,10.4755173 14.0594635,9.84967804 L14.0594635,3.98573303 C14.0594635,3.35982768 13.9003092,2.89059703 13.5820007,2.57804108 C13.2636922,2.26548513 12.7877833,2.10920715 12.154274,2.10920715 L1.90518951,2.10920715 C1.27551524,2.10920715 0.800565084,2.26548513 0.48033905,2.57804108 C0.160113017,2.89059703 0,3.35982768 0,3.98573303 L0,9.84967804 C0,10.4755173 0.160113017,10.9446322 0.48033905,11.2570229 C0.800565084,11.5694135 1.27551524,11.7256088 1.90518951,11.7256088 Z M1.93504333,10.6745758 C1.65561422,10.6745758 1.44381078,10.6024869 1.29963303,10.4583092 C1.15545527,10.3141314 1.08336639,10.0963771 1.08336639,9.80504608 L1.08336639,4.03036499 C1.08336639,3.73943075 1.15545527,3.52177556 1.29963303,3.37739944 C1.44381078,3.23302333 1.65561422,3.16083527 1.93504333,3.16083527 L12.1244202,3.16083527 C12.4039154,3.16083527 12.6166941,3.23302333 12.7627563,3.37739944 C12.9088186,3.52177556 12.9818497,3.73943075 12.9818497,4.03036499 L12.9818497,9.80504608 C12.9818497,10.0963771 12.9088186,10.3141314 12.7627563,10.4583092 C12.6166941,10.6024869 12.4039154,10.6745758 12.1244202,10.6745758 L1.93504333,10.6745758 Z M3.43219757,2.61315155 L4.44345856,2.61315155 L4.44345856,1.60655212 C4.44345856,1.39112854 4.50462087,1.22572581 4.6269455,1.11034393 C4.74927012,0.994962056 4.92108663,0.937271118 5.14239502,0.937271118 L8.91706848,0.937271118 C9.13837687,0.937271118 9.31019338,0.994962056 9.43251801,1.11034393 C9.55484263,1.22572581 9.61600494,1.39112854 9.61600494,1.60655212 L9.61600494,2.60164642 L10.6330185,2.60164642 L10.6330185,1.66199493 C10.6330185,1.09718577 10.4856339,0.678984324 10.1908646,0.407390594 C9.89609528,0.135796865 9.47195943,0 8.91845703,0 L5.14100647,0 C4.61467997,0 4.19829686,0.135796865 3.89185715,0.407390594 C3.58541743,0.678984324 3.43219757,1.09718577 3.43219757,1.66199493 L3.43219757,2.61315155 Z" id="Shape"></path>
            </g>
        </g>
    </g>
</svg>
