<?xml version="1.0" encoding="UTF-8"?>
<svg width="24px" height="24px" viewBox="0 0 23 24" version="1.1" xmlns="http://www.w3.org/2000/svg" xmlns:xlink="http://www.w3.org/1999/xlink">
    <title>Circle</title>
    <g id="New-map" stroke="none" stroke-width="1" fill="none" fill-rule="evenodd">
        <g id="07-copy" transform="translate(-801.000000, -501.000000)" fill="#323232" fill-rule="nonzero">
            <g id="Menu" transform="translate(777.000000, 321.000000)">
                <path d="M35.3710938,203.386719 C36.9335938,203.386719 38.4023438,203.087891 39.7773438,202.490234 C41.1523438,201.892578 42.3632812,201.070312 43.4101562,200.023438 C44.4570312,198.976562 45.2773438,197.767578 45.8710938,196.396484 C46.4648438,195.025391 46.7617188,193.558594 46.7617188,191.996094 C46.7617188,190.433594 46.4648438,188.966797 45.8710938,187.595703 C45.2773438,186.224609 44.4550781,185.013672 43.4042969,183.962891 C42.3535156,182.912109 41.140625,182.089844 39.765625,181.496094 C38.390625,180.902344 36.921875,180.605469 35.359375,180.605469 C33.8125,180.605469 32.3515625,180.902344 30.9765625,181.496094 C29.6015625,182.089844 28.3886719,182.912109 27.3378906,183.962891 C26.2871094,185.013672 25.4648438,186.224609 24.8710938,187.595703 C24.2773438,188.966797 23.9804688,190.433594 23.9804688,191.996094 C23.9804688,193.558594 24.2792969,195.025391 24.8769531,196.396484 C25.4746094,197.767578 26.296875,198.976562 27.34375,200.023438 C28.390625,201.070312 29.6015625,201.892578 30.9765625,202.490234 C32.3515625,203.087891 33.8164062,203.386719 35.3710938,203.386719 Z M35.3710938,201.289062 C34.0898438,201.289062 32.8867188,201.048828 31.7617188,200.568359 C30.6367188,200.087891 29.6503906,199.423828 28.8027344,198.576172 C27.9550781,197.728516 27.2929688,196.742188 26.8164062,195.617188 C26.3398438,194.492188 26.1015625,193.285156 26.1015625,191.996094 C26.1015625,190.714844 26.3398438,189.511719 26.8164062,188.386719 C27.2929688,187.261719 27.9550781,186.273438 28.8027344,185.421875 C29.6503906,184.570312 30.6347656,183.904297 31.7558594,183.423828 C32.8769531,182.943359 34.078125,182.703125 35.359375,182.703125 C36.65625,182.703125 37.8652344,182.943359 38.9863281,183.423828 C40.1074219,183.904297 41.09375,184.570312 41.9453125,185.421875 C42.796875,186.273438 43.4628906,187.261719 43.9433594,188.386719 C44.4238281,189.511719 44.6640625,190.714844 44.6640625,191.996094 C44.671875,193.285156 44.4335938,194.492188 43.9492188,195.617188 C43.4648438,196.742188 42.8007812,197.728516 41.9570312,198.576172 C41.1132812,199.423828 40.1289062,200.087891 39.0039062,200.568359 C37.8789062,201.048828 36.6679688,201.289062 35.3710938,201.289062 Z" id="Circle"></path>
            </g>
        </g>
    </g>
</svg>
