<svg width="26" height="25" viewBox="0 0 26 25" fill="none" xmlns="http://www.w3.org/2000/svg">
<path opacity="0.5" d="M0.709982 24.4639C1.25686 24.9951 2.16311 24.9951 2.69436 24.4639L12.6944 14.4639L22.6944 24.4639C23.2256 24.9951 24.1475 25.0107 24.6787 24.4639C25.21 23.917 25.21 23.0264 24.6787 22.4951L14.6787 12.4795L24.6787 2.47949C25.21 1.94824 25.2256 1.04199 24.6787 0.510742C24.1319 -0.0361332 23.2256 -0.0361332 22.6944 0.510742L12.6944 10.5107L2.69436 0.510742C2.16311 -0.0361332 1.24123 -0.0517582 0.709982 0.510742C0.178732 1.05762 0.178732 1.94824 0.709982 2.47949L10.71 12.4795L0.709982 22.4951C0.178732 23.0264 0.163107 23.9326 0.709982 24.4639Z" fill="#AAB2BD"/>
</svg>
