<?xml version="1.0" encoding="UTF-8"?>
<svg width="26px" height="26px" viewBox="0 0 26 26" version="1.1" xmlns="http://www.w3.org/2000/svg" xmlns:xlink="http://www.w3.org/1999/xlink">
    <title>􀟈</title>
    <g id="New-map" stroke="none" stroke-width="1" fill="none" fill-rule="evenodd">
        <g id="07-copy" transform="translate(-800.000000, -540.000000)" fill="#323232" fill-rule="nonzero">
            <g id="Menu" transform="translate(777.000000, 321.000000)">
                <path d="M35.9414062,244.664062 C36.7851562,244.664062 37.6171875,244.253906 38.4375,243.433594 L47.3789062,234.503906 C48.2070312,233.675781 48.6191406,232.837891 48.6152619,231.990234 C48.6113281,231.142578 48.1914062,230.300781 47.3554688,229.464844 L38.4726562,220.582031 C37.6289062,219.746094 36.7871094,219.326172 35.9472656,219.322238 C35.1074219,219.318359 34.2734375,219.734375 33.4453125,220.570312 L24.5039062,229.488281 C23.6757812,230.324219 23.265625,231.162109 23.273328,232.001953 C23.28125,232.841797 23.703125,233.679688 24.5390625,234.515625 L33.421875,243.410156 C34.2578125,244.246094 35.0976562,244.664062 35.9414062,244.664062 Z M35.9296875,242.490291 C35.53125,242.486328 35.1445312,242.296875 34.7695312,241.921875 L26.015625,233.15625 C25.640625,232.773438 25.4511719,232.386719 25.4472076,231.996094 C25.4433594,231.605469 25.6367188,231.214844 26.0273438,230.824219 L34.7578125,222.09375 C35.15625,221.695312 35.5527344,221.498047 35.9472656,221.501896 C36.3417969,221.505859 36.7304688,221.699219 37.1132812,222.082031 L45.8554688,230.835938 C46.2304688,231.210938 46.421875,231.595703 46.4296875,231.990234 C46.4375,232.384766 46.2460938,232.777344 45.8554688,233.167969 L37.125,241.898438 C36.7265625,242.296875 36.328125,242.494141 35.9296875,242.490291 Z" id="􀟈"></path>
            </g>
        </g>
    </g>
</svg>