<svg width="12" height="8" viewBox="0 0 12 8" fill="none" xmlns="http://www.w3.org/2000/svg">
<path d="M5.91357 7.10681C6.17383 7.10681 6.396 7.00525 6.59912 6.79578L11.3726 1.91443C11.5376 1.74939 11.6201 1.55261 11.6201 1.31775C11.6201 0.841675 11.2393 0.454468 10.7632 0.454468C10.5347 0.454468 10.3125 0.55603 10.1411 0.727417L5.91992 5.06921L1.68604 0.727417C1.51465 0.55603 1.29883 0.454468 1.05762 0.454468C0.587891 0.454468 0.207031 0.841675 0.207031 1.31775C0.207031 1.55261 0.295898 1.74939 0.45459 1.91443L5.22803 6.80212C5.4375 7.00525 5.65332 7.10681 5.91357 7.10681Z" fill="#AAB2BD"/>
</svg>
