
<svg width="145px" height="48px" viewBox="0 0 145 48" version="1.1" xmlns="http://www.w3.org/2000/svg" xmlns:xlink="http://www.w3.org/1999/xlink">
    <g id="Update" stroke="none" stroke-width="1" fill="none" fill-rule="evenodd">
        <g id="Authorization" transform="translate(-1130.000000, -623.000000)" fill-rule="nonzero">
            <g id="Form" transform="translate(864.000000, 0.000000)">
                <g id="Store-Badge" transform="translate(88.000000, 623.000000)">
                    <g id="Google" transform="translate(178.000000, 0.000000)">
                        <path d="M0,8 C0,3.58172 3.58172,0 8,0 L137,0 C141.418,0 145,3.58172 145,8 L145,40 C145,44.4183 141.418,48 137,48 L8,48 C3.58173,48 0,44.4183 0,40 L0,8 Z" id="Path" fill="#F8F8F8"></path>
                        <path d="M74.5721,27.4157 C72.3546,27.4157 70.5428,29.0975 70.5428,31.4087 C70.5428,33.7105 72.3546,35.4016 74.5721,35.4016 C76.7896,35.4016 78.6013,33.7105 78.6013,31.4087 C78.6013,29.0975 76.7896,27.4157 74.5721,27.4157 Z M74.5721,33.8326 C73.3548,33.8326 72.3074,32.8368 72.3074,31.4087 C72.3074,29.9712 73.3548,28.9847 74.5721,28.9847 C75.7893,28.9847 76.8368,29.9712 76.8368,31.4087 C76.8368,32.8368 75.7893,33.8326 74.5721,33.8326 Z M65.7775,27.4157 C63.56,27.4157 61.7483,29.0975 61.7483,31.4087 C61.7483,33.7105 63.56,35.4016 65.7775,35.4016 C67.995,35.4016 69.8068,33.7105 69.8068,31.4087 C69.8068,29.0975 68.0045,27.4157 65.7775,27.4157 Z M65.7775,33.8326 C64.5603,33.8326 63.5129,32.8368 63.5129,31.4087 C63.5129,29.9712 64.5603,28.9847 65.7775,28.9847 C66.9948,28.9847 68.0422,29.9712 68.0422,31.4087 C68.0422,32.8368 66.9948,33.8326 65.7775,33.8326 Z M55.3222,28.6465 L55.3222,30.3376 L59.3987,30.3376 C59.276,31.2866 58.9552,31.9912 58.4739,32.4703 C57.8795,33.0622 56.9547,33.7105 55.3317,33.7105 C52.8217,33.7105 50.8589,31.6999 50.8589,29.2008 C50.8589,26.7017 52.8217,24.6911 55.3317,24.6911 C56.6811,24.6911 57.6719,25.2173 58.3984,25.9031 L59.5968,24.7099 C58.5777,23.7422 57.2284,23 55.3222,23 C51.8875,23 49,25.781 49,29.2102 C49,32.6301 51.8875,35.4204 55.3222,35.4204 C57.1812,35.4204 58.5777,34.8191 59.6723,33.6823 C60.7952,32.5643 61.1444,30.9859 61.1444,29.7176 C61.1444,29.323 61.1161,28.9565 61.05,28.6559 L55.3222,28.6559 L55.3222,28.6465 Z M98.0776,29.9618 C97.7473,29.0693 96.7282,27.4157 94.6428,27.4157 C92.5763,27.4157 90.8589,29.0317 90.8589,31.4087 C90.8589,33.6447 92.5574,35.4016 94.841,35.4016 C96.6811,35.4016 97.7473,34.2836 98.1814,33.6353 L96.8132,32.724 C96.3602,33.3911 95.7374,33.8326 94.841,33.8326 C93.9446,33.8326 93.3029,33.4287 92.8971,32.6207 L98.2663,30.4128 L98.0776,29.9618 Z M92.6046,31.2959 C92.5574,29.7551 93.803,28.9659 94.6995,28.9659 C95.3977,28.9659 95.9922,29.3136 96.1904,29.8115 L92.6046,31.2959 Z M88.2451,35.1668 L90.0097,35.1668 L90.0097,23.4228 L88.2451,23.4228 L88.2451,35.1668 Z M85.3576,28.3083 L85.301,28.3083 C84.9047,27.8385 84.1498,27.4157 83.1873,27.4157 C81.1774,27.4157 79.3373,29.1726 79.3373,31.4275 C79.3373,33.6635 81.1774,35.411 83.1873,35.411 C84.1404,35.411 84.9047,34.9883 85.301,34.4997 L85.3576,34.4997 L85.3576,35.0728 C85.3576,36.6042 84.5367,37.4216 83.2156,37.4216 C82.1399,37.4216 81.4699,36.6512 81.1963,36.0029 L79.6582,36.6418 C80.1017,37.7035 81.2718,39 83.2156,39 C85.2821,39 87.0278,37.788 87.0278,34.8379 L87.0278,27.66 L85.3576,27.66 L85.3576,28.3083 Z M83.3383,33.8326 C82.121,33.8326 81.1019,32.818 81.1019,31.4275 C81.1019,30.0182 82.121,28.9941 83.3383,28.9941 C84.5367,28.9941 85.4803,30.0276 85.4803,31.4275 C85.4803,32.818 84.5367,33.8326 83.3383,33.8326 Z M106.344,23.4228 L102.126,23.4228 L102.126,35.1668 L103.89,35.1668 L103.89,30.7134 L106.353,30.7134 C108.306,30.7134 110.222,29.3042 110.222,27.0681 C110.222,24.8321 108.288,23.4228 106.344,23.4228 Z M106.381,29.0787 L103.881,29.0787 L103.881,25.0482 L106.381,25.0482 C107.703,25.0482 108.448,26.138 108.448,27.0587 C108.448,27.9794 107.703,29.0787 106.381,29.0787 Z M117.271,27.3969 C115.997,27.3969 114.676,27.9607 114.129,29.1914 L115.695,29.8397 C116.025,29.1914 116.648,28.9753 117.299,28.9753 C118.205,28.9753 119.139,29.5203 119.149,30.488 L119.149,30.6101 C118.828,30.4316 118.148,30.1591 117.309,30.1591 C115.619,30.1591 113.912,31.0799 113.912,32.7992 C113.912,34.3682 115.289,35.3829 116.837,35.3829 C118.016,35.3829 118.677,34.8567 119.083,34.2366 L119.139,34.2366 L119.139,35.148 L120.838039,35.148 L120.838039,30.6477 C120.847,28.5619 119.29,27.3969 117.271,27.3969 Z M117.054,33.8326 C116.478,33.8326 115.676,33.5414 115.676,32.8368 C115.676,31.9348 116.676,31.5872 117.544,31.5872 C118.318,31.5872 118.686,31.7563 119.149,31.9818 C119.017,33.0622 118.073,33.8326 117.054,33.8326 Z M127.037,27.6506 L125.018,32.7428 L124.961,32.7428 L122.866,27.6506 L120.97,27.6506 L124.112,34.7722 L122.319,38.7275 L124.159,38.7275 L129,27.6506 L127.037,27.6506 Z M111.184,35.1668 L112.949,35.1668 L112.949,23.4228 L111.184,23.4228 L111.184,35.1668 Z" id="Shape" fill="#2B2D33"></path>
                        <path d="M33.4687,28.3946 L29.7813,24.7071 L18.1791,36.3093 C18.5862,36.4887 19.0745,36.4913 19.5166,36.2426 L33.4687,28.3946 Z" id="Path" fill="#2B2D33"></path>
                        <path d="M34.3738,27.8854 L38.957,25.3074 C39.9765,24.7339 39.9765,23.2661 38.957,22.6926 L34.3738,20.1146 L30.4884,24 L34.3738,27.8854 Z" id="Path" fill="#2B2D33"></path>
                        <path d="M33.4687,19.6055 L19.5166,11.7574 C19.0745,11.5087 18.5862,11.5113 18.1791,11.6907 L29.7813,23.2929 L33.4687,19.6055 Z" id="Path" fill="#2B2D33"></path>
                        <path d="M17.4476,12.3734 L29.0742,24 L17.4476,35.6266 C17.342,35.4233 17.2812,35.1897 17.2812,34.9352 L17.2812,13.0648 C17.2812,12.8103 17.342,12.5767 17.4476,12.3734 Z" id="Path" fill="#2B2D33"></path>
                        <path d="M49.414,12.365 L50.458,12.365 C50.566,11.825 51.025,11.519 51.682,11.519 C52.33,11.519 52.762,11.861 52.762,12.401 C52.762,12.914 52.42,13.292 51.682,13.292 L50.863,13.292 L50.863,14.228 L51.772,14.228 C52.483,14.228 52.996,14.507 52.996,15.155 C52.996,15.758 52.528,16.145 51.772,16.145 C50.98,16.145 50.521,15.758 50.413,15.236 L49.351,15.236 C49.468,16.406 50.413,17.108 51.772,17.108 C53.149,17.108 54.085,16.316 54.085,15.173 C54.085,14.237 53.383,13.787 52.96,13.679 C53.401,13.526 53.851,13.049 53.851,12.329 C53.851,11.285 52.996,10.556 51.691,10.556 C50.548,10.556 49.531,11.177 49.414,12.365 Z M57.7876,13.958 L57.7876,14.219 L56.6716,14.219 C55.5286,14.219 54.8266,14.759 54.8266,15.668 C54.8266,16.568 55.5286,17.108 56.4196,17.108 C57.0136,17.108 57.5176,16.883 57.8416,16.478 L57.8416,17 L58.7956,17 L58.7956,13.976 C58.7956,12.905 58.0486,12.302 56.9236,12.302 C55.7986,12.302 55.1416,12.932 55.0066,13.679 L55.9786,13.679 C56.0776,13.391 56.3566,13.148 56.8876,13.148 C57.4006,13.148 57.7876,13.418 57.7876,13.958 Z M56.6446,16.271 C56.1856,16.271 55.8616,16.046 55.8616,15.632 C55.8616,15.218 56.2216,14.993 56.7436,14.993 L57.7876,14.993 L57.7876,15.272 C57.7876,15.893 57.2566,16.271 56.6446,16.271 Z M63.1509,13.31 L63.1509,12.41 L60.0009,12.41 L60.0009,17 L61.0269,17 L61.0269,13.31 L63.1509,13.31 Z M66.4734,12.302 C65.7444,12.302 65.2764,12.635 65.0514,13.004 L65.0514,12.41 L64.0614,12.41 L64.0614,18.719 L65.0874,18.719 L65.0874,16.487 C65.3034,16.82 65.7714,17.108 66.4464,17.108 C67.5354,17.108 68.5074,16.28 68.5074,14.705 C68.5074,13.13 67.5444,12.302 66.4734,12.302 Z M66.2754,16.199 C65.5464,16.199 65.0604,15.623 65.0604,14.723 L65.0604,14.687 C65.0604,13.787 65.5464,13.211 66.2754,13.211 C66.9954,13.211 67.4724,13.814 67.4724,14.705 C67.4724,15.605 66.9954,16.199 66.2754,16.199 Z M72.3844,12.41 L71.1784,15.695 L69.9724,12.41 L68.8654,12.41 L70.6294,16.919 L69.9184,18.719 L71.0164,18.719 L73.4914,12.41 L72.3844,12.41 Z M73.988,13.697 L74.969,13.697 C75.05,13.382 75.347,13.148 75.833,13.148 C76.274,13.148 76.571,13.346 76.571,13.697 C76.571,14.057 76.301,14.264 75.824,14.264 L75.203,14.264 L75.203,15.074 L75.878,15.074 C76.436,15.074 76.733,15.254 76.733,15.632 C76.733,16.037 76.391,16.262 75.869,16.262 C75.374,16.262 75.005,16.046 74.906,15.65 L73.907,15.65 C74.024,16.577 74.807,17.108 75.869,17.108 C76.985,17.108 77.759,16.532 77.759,15.677 C77.759,14.993 77.264,14.696 76.913,14.615 C77.237,14.48 77.579,14.183 77.579,13.616 C77.579,12.815 76.85,12.302 75.887,12.302 C74.915,12.302 74.087,12.788 73.988,13.697 Z M82.825,12.41 L81.835,12.41 L79.756,15.47 L79.756,12.41 L78.748,12.41 L78.748,17 L79.738,17 L81.817,13.949 L81.817,17 L82.825,17 L82.825,12.41 Z M83.7053,13.31 L85.1723,13.31 L85.1723,17 L86.1983,17 L86.1983,13.31 L87.6653,13.31 L87.6653,12.41 L83.7053,12.41 L83.7053,13.31 Z M92.395,15.002 L92.395,14.579 C92.395,13.193 91.576,12.302 90.316,12.302 C89.02,12.302 88.111,13.22 88.111,14.714 C88.111,16.199 89.02,17.108 90.379,17.108 C91.63,17.108 92.224,16.343 92.341,15.758 L91.333,15.758 C91.261,15.965 90.946,16.253 90.397,16.253 C89.659,16.253 89.164,15.713 89.164,15.02 L89.164,15.002 L92.395,15.002 Z M90.307,13.157 C90.946,13.157 91.342,13.562 91.369,14.228 L89.173,14.228 C89.236,13.58 89.659,13.157 90.307,13.157 Z M95.3329,17 L97.4839,17 C98.5279,17 99.0949,16.433 99.0949,15.695 C99.0949,15.065 98.6989,14.696 98.2669,14.579 C98.5999,14.453 98.9059,14.129 98.9059,13.598 C98.9059,12.932 98.4199,12.41 97.3939,12.41 L95.3329,12.41 L95.3329,17 Z M97.3579,15.038 C97.8259,15.038 98.0689,15.245 98.0689,15.614 C98.0689,15.983 97.8259,16.208 97.3579,16.208 L96.3409,16.208 L96.3409,15.038 L97.3579,15.038 Z M97.2679,13.202 C97.6819,13.202 97.8979,13.382 97.8979,13.724 C97.8979,14.057 97.6729,14.264 97.2679,14.264 L96.3409,14.264 L96.3409,13.202 L97.2679,13.202 Z" id="Shape" fill="#2B2D33"></path>
                    </g>
                </g>
            </g>
        </g>
    </g>
</svg>
