<?xml version="1.0" encoding="UTF-8"?>
<svg width="24px" height="24px" viewBox="0 0 24 25" version="1.1" xmlns="http://www.w3.org/2000/svg" xmlns:xlink="http://www.w3.org/1999/xlink">
    <title>Hexagon</title>
    <g id="New-map" stroke="none" stroke-width="1" fill="none" fill-rule="evenodd">
        <g id="07-copy" transform="translate(-800.000000, -383.000000)" fill="#323232" fill-rule="nonzero">
            <g id="Menu" transform="translate(777.000000, 321.000000)">
                <path d="M37.0898438,86.421875 L44.8125,82.0859375 C45.34375,81.78125 45.7460938,81.4355469 46.0195312,81.0488281 C46.2929688,80.6621094 46.4296875,80.0703125 46.4296875,79.2734375 L46.4296875,70.5195312 C46.4296875,69.7539062 46.2949219,69.1835938 46.0253906,68.8085938 C45.7558594,68.4335938 45.3789062,68.109375 44.8945312,67.8359375 L37.1835938,63.4882812 C36.4882812,63.0898438 35.7988281,62.8925781 35.1152344,62.8964275 C34.4316406,62.9003906 33.75,63.0976562 33.0703125,63.4882812 L25.359375,67.8359375 C24.875,68.109375 24.4980469,68.4335938 24.2285156,68.8085938 C23.9589844,69.1835938 23.8242188,69.7539062 23.8242188,70.5195312 L23.8242188,79.2734375 C23.8242188,80.0703125 23.9609375,80.6621094 24.234375,81.0488281 C24.5078125,81.4355469 24.9101562,81.78125 25.4414062,82.0859375 L33.1640625,86.421875 C34.46875,87.1640625 35.7773438,87.1640625 37.0898438,86.421875 Z M35.1152344,84.9043899 C34.7441406,84.9003906 34.3515625,84.78125 33.9375,84.546875 L26.5898438,80.4101562 C26.2929688,80.2304688 26.0839844,80.046875 25.9628906,79.859375 C25.8417969,79.671875 25.78125,79.4296875 25.78125,79.1328125 L25.78125,70.6835938 C25.78125,70.4101562 25.8398438,70.1855469 25.9570312,70.0097656 C26.0742188,69.8339844 26.2695312,69.6679688 26.5429688,69.5117188 L33.9375,65.3164062 C34.734375,64.8554688 35.5273438,64.8554688 36.3164062,65.3164062 L43.7109375,69.5117188 C43.984375,69.6679688 44.1796875,69.8339844 44.296875,70.0097656 C44.4140625,70.1855469 44.4726562,70.4101562 44.4726562,70.6835938 L44.4726562,79.1328125 C44.4726562,79.4296875 44.4121094,79.671875 44.2910156,79.859375 C44.1699219,80.046875 43.9570312,80.2304688 43.6523438,80.4101562 L36.3164062,84.546875 C35.8867188,84.7890625 35.4863281,84.9082031 35.1152344,84.9043899 Z" id="Hexagon"></path>
            </g>
        </g>
    </g>
</svg>
