<?xml version="1.0" encoding="UTF-8"?>
<svg width="15px" height="15px" viewBox="0 0 15 15" version="1.1" xmlns="http://www.w3.org/2000/svg" xmlns:xlink="http://www.w3.org/1999/xlink">
    <title>Group 2</title>
    <g id="Start" stroke="none" stroke-width="1" fill="none" fill-rule="evenodd">
        <g id="Structure-Copy" transform="translate(-694.000000, -273.000000)">
            <g id="Group-2" transform="translate(694.000000, 273.000000)">
                <circle id="Oval" fill="#AAB2BD" cx="7.5" cy="7.5" r="7.5"></circle>
                <g id="􀦆" transform="translate(3.000000, 4.000000)" fill="#FFFFFF" fill-rule="nonzero">
                    <path d="M1.49728773,5.62310905 L1.60564483,6.06312713 C1.67329878,6.33958768 1.78746244,6.54860439 1.94813579,6.69017725 C2.10880915,6.83175011 2.3349017,6.90253655 2.62641344,6.90253655 L6.37645164,6.90253655 C6.66792518,6.90253655 6.89394132,6.83230403 7.05450008,6.691839 C7.21505883,6.55137396 7.32941349,6.34180334 7.39756405,6.06312713 L7.50557734,5.62310905 L1.49728773,5.62310905 Z M1.37437605,5.10951587 L7.63507869,5.10951587 L8.27616768,2.48894718 L7.92353436,2.29750293 L6.36000611,3.42811847 C6.26079815,3.49943972 6.17885703,3.48683339 6.11418275,3.3902995 L4.61752534,1.15044186 L4.38900703,1.14379489 L2.88490042,3.39631615 C2.8569755,3.43795523 2.82501082,3.46331113 2.78900639,3.47238387 C2.75300196,3.4814566 2.70730403,3.46651047 2.6519126,3.42754546 L1.11560256,2.31383385 L0.720279631,2.45565502 L1.37437605,5.10951587 Z M0.85362018,3.16504737 C1.01211608,3.16504737 1.15559899,3.12664583 1.28406891,3.04984274 C1.41253884,2.97303965 1.51517534,2.86984923 1.59197843,2.74027148 C1.66878152,2.61069373 1.70718306,2.4666569 1.70718306,2.308161 C1.70718306,2.15428742 1.66878152,2.01257131 1.59197843,1.88301266 C1.51517534,1.75345401 1.41253884,1.65026359 1.28406891,1.5734414 C1.15559899,1.49661921 1.01211608,1.45820812 0.85362018,1.45820812 C0.697530943,1.45820812 0.554640147,1.49661921 0.424947792,1.5734414 C0.295255437,1.65026359 0.192007717,1.75290009 0.11520463,1.88135091 C0.0384015433,2.00980174 0,2.15207177 0,2.308161 C0,2.4666569 0.0389554576,2.61069373 0.116866373,2.74027148 C0.194777288,2.86984923 0.298025009,2.97303965 0.426609535,3.04984274 C0.555194061,3.12664583 0.697530943,3.16504737 0.85362018,3.16504737 Z M4.50309428,1.70683925 C4.65914532,1.70683925 4.8014058,1.66842816 4.92987572,1.59160597 C5.05834564,1.51478378 5.16098215,1.41152651 5.23778523,1.28183416 C5.31458832,1.1521418 5.35298986,1.00816228 5.35298986,0.849895584 C5.35298986,0.696060205 5.31458832,0.554353639 5.23778523,0.424775888 C5.16098215,0.295198136 5.05834564,0.192007717 4.92987572,0.11520463 C4.8014058,0.0384015433 4.65914532,0 4.50309428,0 C4.34456018,0 4.2005138,0.0384015433 4.07095515,0.11520463 C3.9413965,0.192007717 3.83820608,0.294644221 3.76138389,0.423114145 C3.68456171,0.551584068 3.64615061,0.693844547 3.64615061,0.849895584 C3.64615061,1.00816228 3.68511562,1.1521418 3.76304564,1.28183416 C3.84097565,1.41152651 3.94471999,1.51478378 4.07427864,1.59160597 C4.20383729,1.66842816 4.34677584,1.70683925 4.50309428,1.70683925 Z M8.14345744,3.16504737 C8.29954668,3.16504737 8.44237063,3.12664583 8.57192928,3.04984274 C8.70148793,2.97303965 8.80522271,2.86984923 8.88313363,2.74027148 C8.96104454,2.61069373 9,2.4666569 9,2.308161 C9,2.15207177 8.96159846,2.00980174 8.88479537,1.88135091 C8.80799228,1.75290009 8.70480186,1.65026359 8.57522411,1.5734414 C8.44564636,1.49661921 8.30172414,1.45820812 8.14345744,1.45820812 C7.9871772,1.45820812 7.84480212,1.49661921 7.7163322,1.5734414 C7.58786227,1.65026359 7.48521622,1.75345401 7.40839403,1.88301266 C7.33157184,2.01257131 7.29316075,2.15428742 7.29316075,2.308161 C7.29316075,2.4666569 7.33157184,2.61069373 7.40839403,2.74027148 C7.48521622,2.86984923 7.58786227,2.97303965 7.7163322,3.04984274 C7.84480212,3.12664583 7.9871772,3.16504737 8.14345744,3.16504737 Z" id="Shape"></path>
                </g>
            </g>
        </g>
    </g>
</svg>