<svg width="12" height="17" viewBox="0 0 12 17" fill="none" xmlns="http://www.w3.org/2000/svg">
<path d="M1.68433 16.8176H9.58667C10.6575 16.8176 11.1804 16.2864 11.1804 15.1243V9.03149C11.1804 7.9856 10.7488 7.44604 9.8606 7.35474V5.26294C9.8606 2.13354 7.8103 0.622803 5.6355 0.622803C3.46069 0.622803 1.4104 2.13354 1.4104 5.26294V7.39624C0.596924 7.52075 0.0905762 8.052 0.0905762 9.03149V15.1243C0.0905762 16.2864 0.613525 16.8176 1.68433 16.8176ZM2.74683 5.08862C2.74683 3.00513 4.08325 1.90112 5.6355 1.90112C7.18774 1.90112 8.52417 3.00513 8.52417 5.08862V7.34644L2.74683 7.35474V5.08862Z" fill="#AAB2BD"/>
</svg>
