<svg width="48" height="48" viewBox="0 0 48 48" fill="none" xmlns="http://www.w3.org/2000/svg">
<circle cx="24" cy="24" r="24" fill="#D9F94B"/>
<path d="M34.8533 33.3758C36.8668 31.0183 36.5879 27.4749 34.2304 25.4614C31.8729 23.4479 28.3295 23.7267 26.3159 26.0842C24.3024 28.4418 24.5813 31.9852 26.9388 33.9987C29.2963 36.0122 32.8398 35.7333 34.8533 33.3758Z" fill="#1D1D1D"/>
<path d="M31.4332 7.54166C32.1646 8.16589 32.7234 8.96753 33.056 9.86973C33.3887 10.7719 33.484 11.7445 33.3328 12.6941C33.1817 13.6437 32.7891 14.5386 32.1928 15.2929C31.5965 16.0473 30.8164 16.6358 29.9273 17.0021L29.7703 17.0643L26.9815 18.1889C25.0898 18.9481 22.8083 19.3166 20.9455 21.4976C19.3222 23.3983 19.0676 26.2832 18.6103 28.2021L17.9415 30.941L17.9122 31.07C17.6901 32.0063 17.2312 32.8698 16.5794 33.5777C15.9276 34.2856 15.1049 34.8142 14.1901 35.1128C13.2753 35.4114 12.2992 35.4699 11.3553 35.2828C10.4114 35.0957 9.53138 34.6693 8.79966 34.0443C8.06795 33.4194 7.50906 32.6169 7.17661 31.7139C6.84416 30.8109 6.74928 29.8376 6.90109 28.8874C7.0529 27.9372 7.44629 27.0419 8.04354 26.2874C8.6408 25.5329 9.42188 24.9445 10.3119 24.5787L10.3252 24.5631L10.402 24.5363L10.7716 24.4055L13.5013 23.4537C15.2488 22.8407 17.438 22.1162 19.2191 20.0309C19.8882 19.2474 21.0234 15.4981 21.4261 13.9406L22.3165 10.5095C22.5392 9.57433 22.9982 8.71199 23.6497 8.00511C24.3013 7.29823 25.1234 6.77051 26.0374 6.47251C26.9513 6.1745 27.9265 6.1162 28.8695 6.30319C29.8124 6.49018 30.6916 6.91619 31.4227 7.54041L31.4332 7.54166Z" fill="#1D1D1D"/>
</svg>
