<svg width="33" height="33" viewBox="0 0 33 33" fill="none" xmlns="http://www.w3.org/2000/svg">
<path d="M28.9079 28.598C30.827 26.351 30.5612 22.9737 28.3142 21.0545C26.0672 19.1354 22.6899 19.4012 20.7708 21.6482C18.8517 23.8952 19.1175 27.2726 21.3645 29.1917C23.6115 31.1108 26.9888 30.845 28.9079 28.598Z" fill="#1D1D1D"/>
<path d="M25.6479 3.97522C26.345 4.57019 26.8777 5.33425 27.1947 6.19416C27.5118 7.05408 27.6026 7.98102 27.4585 8.88612C27.3145 9.79123 26.9403 10.6442 26.372 11.3631C25.8036 12.0821 25.0601 12.6431 24.2127 12.9922L24.063 13.0515L21.4049 14.1234C19.6019 14.847 17.4273 15.1982 15.6518 17.277C14.1046 19.0886 13.862 21.8382 13.4262 23.6672L12.7887 26.2777L12.7608 26.4006C12.5491 27.293 12.1116 28.1161 11.4904 28.7908C10.8692 29.4656 10.085 29.9694 9.21315 30.254C8.34126 30.5386 7.41087 30.5944 6.51121 30.416C5.61154 30.2377 4.77279 29.8312 4.07537 29.2356C3.37795 28.6399 2.84527 27.8751 2.5284 27.0144C2.21153 26.1537 2.1211 25.226 2.26579 24.3204C2.41048 23.4147 2.78544 22.5614 3.35469 21.8422C3.92395 21.1231 4.66842 20.5623 5.51671 20.2136L5.52939 20.1988L5.60257 20.1732L5.95485 20.0485L8.55664 19.1413C10.2222 18.5571 12.3088 17.8666 14.0064 15.879C14.6441 15.1323 15.7261 11.5587 16.1099 10.0742L16.9586 6.80396C17.1708 5.91261 17.6084 5.09069 18.2293 4.41695C18.8503 3.7432 19.6339 3.24022 20.505 2.95618C21.3762 2.67215 22.3056 2.61658 23.2044 2.7948C24.1032 2.97303 24.9411 3.37907 25.6379 3.97403L25.6479 3.97522Z" fill="#1D1D1D"/>
</svg>
