<?xml version="1.0" encoding="UTF-8"?>
<svg width="107px" height="18px" viewBox="0 0 107 18" version="1.1" xmlns="http://www.w3.org/2000/svg" xmlns:xlink="http://www.w3.org/1999/xlink">
    <title>atmaguru</title>
    <g id="Start" stroke="none" stroke-width="1" fill="none" fill-rule="evenodd">
        <path d="M4.698,14.18 C5.862,14.18 6.939,14.024 7.929,13.712 C8.919,13.4 9.552,12.968 9.828,12.416 L9.828,12.416 L9.828,12.506 L10.116,14 L13.392,14 L13.392,7.664 C13.392,6.212 12.738,5.198 11.43,4.622 C10.122,4.046 8.64,3.758 6.984,3.758 C6.036,3.758 5.073,3.863 4.095,4.073 C3.117,4.283 2.277,4.658 1.575,5.198 C0.873,5.738 0.522,6.47 0.522,7.394 L0.522,7.394 L4.032,7.394 C4.032,6.83 4.317,6.413 4.887,6.143 C5.457,5.873 6.15,5.738 6.966,5.738 C7.722,5.738 8.391,5.855 8.973,6.089 C9.555,6.323 9.852,6.65 9.864,7.07 L9.864,7.07 L9.864,7.268 C9.852,7.52 9.735,7.694 9.513,7.79 C9.291,7.886 8.826,7.949 8.118,7.979 C7.4985,8.00525 6.4471875,8.02001563 4.9640625,8.02329688 L4.302,8.024 C3.354,8.024 2.469,8.222 1.647,8.618 C0.825,9.014 0.414,9.83 0.414,11.066 C0.414,12.362 0.894,13.205 1.854,13.595 C2.814,13.985 3.762,14.18 4.698,14.18 Z M6.534,11.768 C5.634,11.768 4.995,11.666 4.617,11.462 C4.239,11.258 4.032,10.958 3.996,10.562 C4.008,10.274 4.119,10.055 4.329,9.905 C4.539,9.755 4.869,9.65 5.319,9.59 C5.769,9.53 6.396,9.5 7.2,9.5 C8.388,9.5 9.27,9.368 9.846,9.104 L9.846,9.104 L9.846,9.122 C9.846,9.854 9.591,10.478 9.081,10.994 C8.571,11.51 7.722,11.768 6.534,11.768 Z M19.944,14 L19.944,6.71 L21.816,6.71 L21.816,4.19 L19.944,4.19 L19.944,0.392 L16.434,2.066 L16.434,4.19 L14.472,4.19 L14.472,6.71 L16.434,6.71 L16.434,14 L19.944,14 Z M26.406,14 L26.406,10.49 C26.406,9.482 26.451,8.69 26.541,8.114 C26.631,7.538 26.859,7.07 27.225,6.71 C27.591,6.35 28.164,6.17 28.944,6.17 C29.916,6.17 30.558,6.521 30.87,7.223 C31.182,7.925 31.338,8.852 31.338,10.004 L31.338,10.004 L31.338,14 L34.866,14 L34.866,9.95 C34.866,9.17 34.92,8.513 35.028,7.979 C35.136,7.445 35.367,7.01 35.721,6.674 C36.075,6.338 36.594,6.17 37.278,6.17 C38.25,6.17 38.907,6.527 39.249,7.241 C39.591,7.955 39.762,8.876 39.762,10.004 L39.762,10.004 L39.762,14 L43.272,14 L43.272,9.95 C43.272,8.462 43.125,7.274 42.831,6.386 C42.537,5.498 42.09,4.856 41.49,4.46 C40.89,4.064 40.104,3.866 39.132,3.866 C37.872,3.866 36.846,4.031 36.054,4.361 C35.262,4.691 34.662,5.24 34.254,6.008 C33.942,5.252 33.504,4.706 32.94,4.37 C32.376,4.034 31.644,3.866 30.744,3.866 C29.724,3.866 28.851,3.998 28.125,4.262 C27.399,4.526 26.796,4.928 26.316,5.468 L26.316,5.468 L25.92,4.19 L22.896,4.19 L22.896,14 L26.406,14 Z M48.51,14.18 C49.674,14.18 50.751,14.024 51.741,13.712 C52.731,13.4 53.364,12.968 53.64,12.416 L53.64,12.416 L53.64,12.506 L53.928,14 L57.204,14 L57.204,7.664 C57.204,6.212 56.55,5.198 55.242,4.622 C53.934,4.046 52.452,3.758 50.796,3.758 C49.848,3.758 48.885,3.863 47.907,4.073 C46.929,4.283 46.089,4.658 45.387,5.198 C44.685,5.738 44.334,6.47 44.334,7.394 L44.334,7.394 L47.844,7.394 C47.844,6.83 48.129,6.413 48.699,6.143 C49.269,5.873 49.962,5.738 50.778,5.738 C51.534,5.738 52.203,5.855 52.785,6.089 C53.367,6.323 53.664,6.65 53.676,7.07 L53.676,7.07 L53.676,7.268 C53.664,7.52 53.547,7.694 53.325,7.79 C53.103,7.886 52.638,7.949 51.93,7.979 C51.3105,8.00525 50.2591875,8.02001563 48.7760625,8.02329688 L48.114,8.024 C47.166,8.024 46.281,8.222 45.459,8.618 C44.637,9.014 44.226,9.83 44.226,11.066 C44.226,12.362 44.706,13.205 45.666,13.595 C46.626,13.985 47.574,14.18 48.51,14.18 Z M50.346,11.768 C49.446,11.768 48.807,11.666 48.429,11.462 C48.051,11.258 47.844,10.958 47.808,10.562 C47.82,10.274 47.931,10.055 48.141,9.905 C48.351,9.755 48.681,9.65 49.131,9.59 C49.581,9.53 50.208,9.5 51.012,9.5 C52.2,9.5 53.082,9.368 53.658,9.104 L53.658,9.104 L53.658,9.122 C53.658,9.854 53.403,10.478 52.893,10.994 C52.383,11.51 51.534,11.768 50.346,11.768 Z M65.088,17.834 C65.964,17.834 66.849,17.717 67.743,17.483 C68.637,17.249 69.405,16.847 70.047,16.277 C70.689,15.707 71.034,14.948 71.082,14 L71.082,14 L71.082,4.19 L67.896,4.19 L67.626,5.324 C66.618,4.364 65.046,3.914 62.91,3.974 C61.986,3.974 61.161,4.202 60.435,4.658 C59.709,5.114 59.142,5.738 58.734,6.53 C58.326,7.322 58.116,8.21 58.104,9.194 L58.104,9.194 L58.104,9.32 C58.128,10.172 58.347,10.982 58.761,11.75 C59.175,12.518 59.742,13.139 60.462,13.613 C61.182,14.087 61.998,14.324 62.91,14.324 C64.974,14.324 66.522,13.862 67.554,12.938 L67.554,12.938 L67.554,13.82 C67.554,14.588 67.287,15.11 66.753,15.386 C66.219,15.662 65.664,15.8 65.088,15.8 L65.088,15.8 L64.458,15.818 C62.958,15.818 62.208,15.446 62.208,14.702 L62.208,14.702 L58.626,14.702 C58.626,15.698 58.959,16.424 59.625,16.88 C60.291,17.336 61.041,17.609 61.875,17.699 C62.709,17.789 63.78,17.834 65.088,17.834 Z M64.692,12.164 C63.768,12.164 63.048,11.888 62.532,11.336 C62.016,10.784 61.746,10.07 61.722,9.194 C61.746,8.294 62.025,7.553 62.559,6.971 C63.093,6.389 63.84,6.098 64.8,6.098 C65.328,6.098 65.802,6.233 66.222,6.503 C66.642,6.773 66.969,7.13 67.203,7.574 C67.437,8.018 67.554,8.486 67.554,8.978 L67.554,8.978 L67.554,9.032 C67.554,10.04 67.293,10.814 66.771,11.354 C66.249,11.894 65.556,12.164 64.692,12.164 Z M76.824,14.324 C78.72,14.324 80.136,13.796 81.072,12.74 L81.072,12.74 L81.072,14 L84.582,14 L84.582,4.19 L81.072,4.19 L81.072,8.15 C81.072,9.29 80.892,10.217 80.532,10.931 C80.172,11.645 79.452,12.002 78.372,12.002 C77.628,12.002 77.07,11.822 76.698,11.462 C76.326,11.102 76.089,10.655 75.987,10.121 C75.885,9.587 75.834,8.942 75.834,8.186 L75.834,8.186 L75.834,4.19 L72.324,4.19 L72.324,8.24 C72.324,10.412 72.717,11.969 73.503,12.911 C74.289,13.853 75.396,14.324 76.824,14.324 Z M89.262,14 L89.262,10.022 C89.262,9.038 89.409,8.258 89.703,7.682 C89.997,7.106 90.558,6.818 91.386,6.818 L91.386,6.818 L93.636,6.818 L93.636,4.01 C91.632,4.202 90.162,4.808 89.226,5.828 L89.226,5.828 L88.884,4.19 L85.752,4.19 L85.752,14 L89.262,14 Z M99.216,14.324 C101.112,14.324 102.528,13.796 103.464,12.74 L103.464,12.74 L103.464,14 L106.974,14 L106.974,4.19 L103.464,4.19 L103.464,8.15 C103.464,9.29 103.284,10.217 102.924,10.931 C102.564,11.645 101.844,12.002 100.764,12.002 C100.02,12.002 99.462,11.822 99.09,11.462 C98.718,11.102 98.481,10.655 98.379,10.121 C98.277,9.587 98.226,8.942 98.226,8.186 L98.226,8.186 L98.226,4.19 L94.716,4.19 L94.716,8.24 C94.716,10.412 95.109,11.969 95.895,12.911 C96.681,13.853 97.788,14.324 99.216,14.324 Z" id="atmaguru" fill="#1790FF" fill-rule="nonzero"></path>
    </g>
</svg>