<svg width="18" height="18" viewBox="0 0 18 18" fill="none" xmlns="http://www.w3.org/2000/svg">
<path fill-rule="evenodd" clip-rule="evenodd" d="M8.45798 0.880236C8.09966 0.969209 7.77004 1.19884 7.11079 1.65811L6.68847 1.95232C6.47368 2.10196 6.36628 2.17677 6.25122 2.23653C6.14903 2.2896 6.04245 2.33375 5.93266 2.36848C5.80905 2.40759 5.6802 2.43062 5.42251 2.4767L5.42251 2.4767L4.91584 2.56728C4.12494 2.70869 3.72948 2.7794 3.4132 2.96985C3.13381 3.13809 2.89981 3.3721 2.73157 3.65148C2.54112 3.96776 2.47041 4.36322 2.329 5.15413L2.23842 5.66079L2.23842 5.66079C2.19234 5.91848 2.1693 6.04733 2.1302 6.17094C2.09547 6.28073 2.05132 6.38731 1.99825 6.4895C1.93849 6.60456 1.86367 6.71196 1.71404 6.92675L1.41983 7.34907C0.960561 8.00832 0.730928 8.33795 0.641955 8.69626C0.563359 9.01278 0.563359 9.34372 0.641955 9.66023C0.730928 10.0185 0.960561 10.3482 1.41983 11.0074L1.71404 11.4297L1.71404 11.4298C1.86368 11.6445 1.93849 11.7519 1.99825 11.867C2.05132 11.9692 2.09547 12.0758 2.1302 12.1856C2.1693 12.3092 2.19234 12.438 2.23842 12.6957L2.329 13.2024C2.47041 13.9933 2.54112 14.3887 2.73157 14.705C2.89981 14.9844 3.13381 15.2184 3.4132 15.3866C3.72948 15.5771 4.12493 15.6478 4.91583 15.7892L4.91584 15.7892L5.42251 15.8798L5.42252 15.8798C5.68021 15.9259 5.80905 15.9489 5.93266 15.988C6.04245 16.0227 6.14903 16.0669 6.25122 16.12C6.36628 16.1797 6.47368 16.2545 6.68847 16.4042L7.11079 16.6984L7.1108 16.6984C7.77004 17.1577 8.09967 17.3873 8.45798 17.4763C8.7745 17.5549 9.10543 17.5549 9.42195 17.4763C9.78026 17.3873 10.1099 17.1577 10.7691 16.6984L10.7691 16.6984L11.1915 16.4042C11.4063 16.2545 11.5137 16.1797 11.6287 16.12C11.7309 16.0669 11.8375 16.0227 11.9473 15.988C12.0709 15.9489 12.1997 15.9259 12.4574 15.8798L12.9641 15.7892C13.755 15.6478 14.1504 15.5771 14.4667 15.3866C14.7461 15.2184 14.9801 14.9844 15.1484 14.705C15.3388 14.3887 15.4095 13.9933 15.5509 13.2024L15.6415 12.6957C15.6876 12.438 15.7106 12.3092 15.7497 12.1856C15.7845 12.0758 15.8286 11.9692 15.8817 11.867C15.9414 11.7519 16.0163 11.6445 16.1659 11.4298L16.1659 11.4297L16.4601 11.0074C16.9194 10.3482 17.149 10.0185 17.238 9.66023C17.3166 9.34372 17.3166 9.01278 17.238 8.69626C17.149 8.33795 16.9194 8.00832 16.4601 7.34907L16.1659 6.92675L16.1659 6.92674C16.0163 6.71195 15.9414 6.60456 15.8817 6.4895C15.8286 6.38731 15.7845 6.28073 15.7497 6.17094C15.7106 6.04733 15.6876 5.91848 15.6415 5.66079L15.5509 5.15413C15.4095 4.36322 15.3388 3.96776 15.1484 3.65148C14.9801 3.3721 14.7461 3.13809 14.4667 2.96985C14.1504 2.7794 13.755 2.70869 12.9641 2.56728L12.4574 2.4767C12.1997 2.43062 12.0709 2.40759 11.9473 2.36848C11.8375 2.33375 11.7309 2.2896 11.6287 2.23653C11.5137 2.17678 11.4063 2.10196 11.1915 1.95233L11.1915 1.95232L10.7691 1.65811L10.7691 1.6581C10.1099 1.19884 9.78026 0.969209 9.42195 0.880236C9.10543 0.80164 8.7745 0.80164 8.45798 0.880236ZM8.76075 12.2822C8.62012 12.4971 8.41309 12.5986 8.14747 12.5986C7.89747 12.5986 7.70997 12.5088 7.542 12.3096L5.52637 9.86816C5.38575 9.70801 5.33497 9.56348 5.33497 9.39941C5.33497 9.03223 5.6084 8.7627 5.98731 8.7627C6.20606 8.7627 6.36231 8.84082 6.50684 9.0127L8.12793 11.0244L11.3232 5.98535C11.4795 5.73926 11.6397 5.64551 11.8975 5.64551C12.2725 5.64551 12.5459 5.91113 12.5459 6.27832C12.5459 6.41504 12.5029 6.55957 12.4014 6.71582L8.76075 12.2822Z" fill="#3D72ED"/>
</svg>
