<?xml version="1.0" encoding="UTF-8"?>
<svg width="16px" height="16px" viewBox="0 0 16 16" version="1.1" xmlns="http://www.w3.org/2000/svg" xmlns:xlink="http://www.w3.org/1999/xlink">
    <title>Group</title>
    <g id="Map" stroke="none" stroke-width="1" fill="none" fill-rule="evenodd">
        <g id="Map2" transform="translate(-407.000000, -375.000000)">
            <g id="#" opacity="0.400000006" transform="translate(0.000000, -1.000000)">
                <g id="|" transform="translate(172.000000, 1.500000)"></g>
                <g id="—"></g>
            </g>
            <g id="BODY" transform="translate(105.000000, 117.000000)">
                <line x1="108" y1="266" x2="1039" y2="266" id="Line-2" stroke="#1790FF" stroke-width="2" stroke-linecap="square"></line>
                <g id="XLS" transform="translate(302.000000, 122.000000)">
                    <rect id="Rectangle" stroke="#AAB2BD" stroke-width="2" fill="#F8F8F8" x="9" y="9" width="212" height="270" rx="20"></rect>
                    <g id="Group" transform="translate(0.000000, 136.000000)">
                        <circle id="Oval-Copy-5" fill="#1790FF" cx="8" cy="8" r="8"></circle>
                        <path d="M8.00254291,12.1576605 C8.09069718,12.1576605 8.17207035,12.1347743 8.24666243,12.0890019 C8.3212545,12.0432295 8.38143675,11.9830473 8.42720915,11.9084552 C8.47298156,11.8338631 8.49586777,11.7541852 8.49586777,11.6694215 L8.49586777,8.57215512 L11.511761,8.57215512 C11.5965247,8.57215512 11.6770502,8.55011655 11.7533376,8.50603942 C11.8296249,8.46196228 11.8898072,8.40262768 11.9338843,8.3280356 C11.9779614,8.25344353 12,8.17037508 12,8.07883026 C12,7.99067599 11.9779614,7.90930282 11.9338843,7.83471074 C11.8898072,7.76011867 11.8296249,7.69993643 11.7533376,7.65416402 C11.6770502,7.60839161 11.5965247,7.5855054 11.511761,7.5855054 L8.49586777,7.5855054 L8.49586777,4.48823903 C8.49586777,4.40008476 8.47298156,4.31955923 8.42720915,4.24666243 C8.38143675,4.17376563 8.3212545,4.11443102 8.24666243,4.06865861 C8.17207035,4.0228862 8.09069718,4 8.00254291,4 C7.91438864,4 7.83216783,4.0228862 7.75588048,4.06865861 C7.67959313,4.11443102 7.61941089,4.17376563 7.57533376,4.24666243 C7.53125662,4.31955923 7.50921805,4.40008476 7.50921805,4.48823903 L7.50921805,7.5855054 L4.49332486,7.5855054 C4.40517059,7.5855054 4.32464505,7.60839161 4.25174825,7.65416402 C4.17885145,7.69993643 4.11866921,7.76011867 4.07120153,7.83471074 C4.02373384,7.90930282 4,7.99067599 4,8.07883026 C4,8.17037508 4.02373384,8.25344353 4.07120153,8.3280356 C4.11866921,8.40262768 4.17885145,8.46196228 4.25174825,8.50603942 C4.32464505,8.55011655 4.40517059,8.57215512 4.49332486,8.57215512 L7.50921805,8.57215512 L7.50921805,11.6694215 C7.50921805,11.7541852 7.53125662,11.8338631 7.57533376,11.9084552 C7.61941089,11.9830473 7.67959313,12.0432295 7.75588048,12.0890019 C7.83216783,12.1347743 7.91438864,12.1576605 8.00254291,12.1576605 Z" id="􀅼" fill="#FFFFFF" fill-rule="nonzero"></path>
                    </g>
                </g>
            </g>
        </g>
    </g>
</svg>
