<?xml version="1.0" encoding="UTF-8"?>
<svg width="24px" height="24px" viewBox="0 0 24 24" version="1.1" xmlns="http://www.w3.org/2000/svg"
     xmlns:xlink="http://www.w3.org/1999/xlink">
    <g id="New-map" stroke="none" stroke-width="1" fill="none" fill-rule="evenodd">
        <circle id="Oval-Copy-5" stroke="#1790FF" stroke-width="1.8" cx="12" cy="12" r="11.1"></circle>
        <path id="􀅼" fill="#1790FF" fill-rule="nonzero"
              d="M12.0038144,18.2364908 C12.1360458,18.2364908 12.2581055,18.2021615 12.3699936,18.1335029 C12.4818818,18.0648442 12.5721551,17.9745709 12.6408137,17.8626828 C12.7094723,17.7507947 12.7438017,17.6312778 12.7438017,17.5041322 L12.7438017,12.8582327 L17.2676414,12.8582327 C17.394787,12.8582327 17.5155753,12.8251748 17.6300064,12.7590591 C17.7444374,12.6929434 17.8347107,12.6039415 17.9008264,12.4920534 C17.9669421,12.3801653 18,12.2555626 18,12.1182454 C18,11.986014 17.9669421,11.8639542 17.9008264,11.7520661 C17.8347107,11.640178 17.7444374,11.5499046 17.6300064,11.481246 C17.5155753,11.4125874 17.394787,11.3782581 17.2676414,11.3782581 L12.7438017,11.3782581 L12.7438017,6.73235855 C12.7438017,6.60012715 12.7094723,6.47933884 12.6408137,6.36999364 C12.5721551,6.26064844 12.4818818,6.17164654 12.3699936,6.10298792 C12.2581055,6.03432931 12.1360458,6 12.0038144,6 C11.871583,6 11.7482517,6.03432931 11.6338207,6.10298792 C11.5193897,6.17164654 11.4291163,6.26064844 11.3630006,6.36999364 C11.2968849,6.47933884 11.2638271,6.60012715 11.2638271,6.73235855 L11.2638271,11.3782581 L6.73998729,11.3782581 C6.60775588,11.3782581 6.48696758,11.4125874 6.37762238,11.481246 C6.26827718,11.5499046 6.17800381,11.640178 6.10680229,11.7520661 C6.03560076,11.8639542 6,11.986014 6,12.1182454 C6,12.2555626 6.03560076,12.3801653 6.10680229,12.4920534 C6.17800381,12.6039415 6.26827718,12.6929434 6.37762238,12.7590591 C6.48696758,12.8251748 6.60775588,12.8582327 6.73998729,12.8582327 L11.2638271,12.8582327 L11.2638271,17.5041322 C11.2638271,17.6312778 11.2968849,17.7507947 11.3630006,17.8626828 C11.4291163,17.9745709 11.5193897,18.0648442 11.6338207,18.1335029 C11.7482517,18.2021615 11.871583,18.2364908 12.0038144,18.2364908 Z"></path>
    </g>
</svg>
