<?xml version="1.0" encoding="UTF-8"?>
<svg width="16px" height="12px" viewBox="0 0 16 12" version="1.1" xmlns="http://www.w3.org/2000/svg" xmlns:xlink="http://www.w3.org/1999/xlink">
    <title>Folder</title>
    <g id="Start" stroke="none" stroke-width="1" fill="none" fill-rule="evenodd">
        <g id="Structure" transform="translate(-342.000000, -185.000000)" fill="#AAB2BD" fill-rule="nonzero">
            <g id="BODY" transform="translate(-53.000000, 0.000000)">
                <g id="Column" transform="translate(389.000000, 80.000000)">
                    <path d="M18.9682228,111.088662 C19.3783183,111.088662 19.7664444,111.008108 20.132601,110.846999 C20.4987577,110.68589 20.8220217,110.46515 21.1023931,110.184778 C21.3827645,109.904407 21.6024585,109.581143 21.7614751,109.214986 C21.9204917,108.84883 22,108.458611 22,108.044331 C22,107.625866 21.9215379,107.233556 21.7646136,106.867399 C21.6076893,106.501242 21.3900876,106.177978 21.1118086,105.897607 C20.8335295,105.617236 20.5102655,105.397542 20.1420165,105.238525 C19.7737675,105.079508 19.3825029,105 18.9682228,105 C18.5497581,105 18.1574474,105.080554 17.7912907,105.241663 C17.425134,105.402772 17.10187,105.622466 16.8214986,105.900745 C16.5411272,106.179024 16.3214332,106.501242 16.1624166,106.867399 C16.0034,107.233556 15.9238917,107.625866 15.9238917,108.044331 C15.9238917,108.462796 16.0034,108.855107 16.1624166,109.221263 C16.3214332,109.58742 16.5411272,109.910684 16.8214986,110.191055 C17.10187,110.471427 17.425134,110.691121 17.7912907,110.850137 C18.1574474,111.009154 18.5497581,111.088662 18.9682228,111.088662 Z M17.8069831,116.173009 C18.3593566,116.173009 18.7893291,116.013992 19.0969007,115.695959 C19.4044723,115.377926 19.5582581,114.907153 19.5582581,114.283641 L19.5582581,111.873284 C19.4159801,111.894207 19.2444096,111.905715 19.0435465,111.907807 C18.8426834,111.909899 18.6543743,111.898392 18.4786191,111.873284 L18.4786191,114.208317 C18.4786191,114.501242 18.4022492,114.723029 18.2495096,114.873676 C18.09677,115.024323 17.8781221,115.099647 17.5935661,115.099647 L7.95841506,115.099647 C7.67804368,115.099647 7.46148817,115.024323 7.30874853,114.873676 C7.15600889,114.723029 7.07963907,114.49915 7.07963907,114.20204 L7.07933321,109.576775 L15.428011,109.575912 C15.356872,109.425265 15.2972407,109.268341 15.2491173,109.105139 C15.2009939,108.941938 15.1643782,108.774552 15.1392703,108.602982 L7.07933321,108.603283 L7.07963907,107.121616 C7.07963907,106.841245 7.15287041,106.628874 7.29933307,106.484504 C7.44579574,106.340133 7.65712044,106.267948 7.93330718,106.267948 L9.11965477,106.267948 C9.32051785,106.267948 9.4920884,106.295148 9.63436642,106.349549 C9.77664444,106.403949 9.92938407,106.498104 10.0925853,106.632013 L10.4378188,106.920753 C10.5717275,107.033739 10.7014515,107.121616 10.826991,107.184386 C10.9525304,107.247156 11.0895776,107.292141 11.2381326,107.319341 C11.3866876,107.346541 11.5613966,107.360141 11.7622597,107.360141 L15.1643782,107.360141 C15.1936707,107.171832 15.2334249,106.991892 15.2836406,106.820322 C15.3338564,106.648751 15.4049954,106.470904 15.4970577,106.286779 L12.0447234,106.286779 C11.8396757,106.286779 11.6649667,106.259579 11.5205963,106.205179 C11.376226,106.150778 11.2245325,106.058716 11.0655159,105.928992 L10.7202825,105.640251 C10.5821891,105.53145 10.4514189,105.443573 10.3279718,105.376618 C10.2045247,105.309664 10.0695698,105.262587 9.9231071,105.235386 C9.77664444,105.208186 9.60298156,105.194586 9.40211848,105.194586 L7.71361318,105.194586 C7.17379364,105.194586 6.75323656,105.349418 6.45194194,105.659082 C6.15064731,105.968746 6,106.431149 6,107.046293 L6,114.283641 C6,114.911338 6.16110893,115.383157 6.48332679,115.699098 C6.80554466,116.015039 7.28259448,116.173009 7.91447627,116.173009 L17.8069831,116.173009 Z M18.9556689,108.194978 C18.6878514,108.194978 18.4618805,108.095593 18.277756,107.896822 C18.0936315,107.698052 18.0015692,107.445927 18.0015692,107.140447 C18.0015692,106.868445 18.0946777,106.632013 18.2808945,106.431149 C18.4671113,106.230286 18.6920361,106.129855 18.9556689,106.129855 C19.227671,106.129855 19.4557343,106.230286 19.6398588,106.431149 C19.8239833,106.632013 19.9160455,106.868445 19.9160455,107.140447 C19.9160455,107.445927 19.8250294,107.698052 19.6429973,107.896822 C19.4609651,108.095593 19.2318556,108.194978 18.9556689,108.194978 Z M18.9619459,110.34798 C18.5309272,110.34798 18.1584935,110.254871 17.844645,110.068654 C17.5307964,109.882438 17.327841,109.688898 17.2357787,109.488035 L17.2357787,109.45665 C17.2985485,109.335295 17.4073493,109.214986 17.5621812,109.095724 C17.7170132,108.976461 17.9126455,108.877076 18.1490781,108.797568 C18.3855107,108.718059 18.6564666,108.678305 18.9619459,108.678305 C19.2674251,108.678305 19.5373349,108.718059 19.7716752,108.797568 C20.0060154,108.877076 20.2016477,108.976461 20.358572,109.095724 C20.5154963,109.214986 20.6253433,109.337387 20.688113,109.462927 L20.688113,109.488035 C20.5960507,109.693082 20.3930953,109.887668 20.0792468,110.071793 C19.7653982,110.255917 19.3929646,110.34798 18.9619459,110.34798 Z" id="Folder"></path>
                </g>
            </g>
        </g>
    </g>
</svg>