<?xml version="1.0" encoding="UTF-8"?>
<svg width="26px" height="26px" viewBox="0 0 26 26" version="1.1" xmlns="http://www.w3.org/2000/svg" xmlns:xlink="http://www.w3.org/1999/xlink">
    <title>􀟆</title>
    <g id="New-map" stroke="none" stroke-width="1" fill="none" fill-rule="evenodd">
        <g id="07-copy" transform="translate(-799.000000, -423.000000)" fill="#323232" fill-rule="nonzero">
            <g id="Menu" transform="translate(777.000000, 321.000000)">
                <path d="M34.6191406,127.628906 C35.2949219,127.628906 35.9921875,127.273438 36.7109375,126.5625 L38.3984375,124.875 C38.546875,124.726562 38.7304688,124.652344 38.9492188,124.652344 L41.3164062,124.652344 C42.3320312,124.652344 43.0800781,124.412109 43.5605469,123.931641 C44.0410156,123.451172 44.28125,122.707031 44.28125,121.699219 L44.28125,119.308594 C44.28125,119.105469 44.3554688,118.925781 44.5039062,118.769531 L46.1914062,117.070312 C46.9023438,116.367188 47.2558594,115.675781 47.2519851,114.996094 C47.2480469,114.316406 46.8945312,113.617188 46.1914062,112.898438 L44.5039062,111.210938 C44.3554688,111.0625 44.28125,110.882812 44.28125,110.671875 L44.28125,108.28125 C44.28125,107.28125 44.0410156,106.539062 43.5605469,106.054688 C43.0800781,105.570312 42.3320312,105.328125 41.3164062,105.328125 L38.9492188,105.328125 C38.7304688,105.328125 38.546875,105.253906 38.3984375,105.105469 L36.7109375,103.417969 C35.9921875,102.707031 35.2949219,102.353516 34.6191406,102.35739 C33.9433594,102.361328 33.25,102.714844 32.5390625,103.417969 L30.8398438,105.105469 C30.6914062,105.253906 30.5078125,105.328125 30.2890625,105.328125 L27.921875,105.328125 C26.9140625,105.328125 26.1679688,105.566406 25.6835938,106.042969 C25.1992188,106.519531 24.9570312,107.265625 24.9570312,108.28125 L24.9570312,110.671875 C24.9570312,110.882812 24.8867188,111.0625 24.7460938,111.210938 L23.0585938,112.898438 C22.3398438,113.617188 21.9824219,114.316406 21.9862965,114.996094 C21.9902344,115.675781 22.3476562,116.367188 23.0585938,117.070312 L24.7460938,118.769531 C24.8867188,118.925781 24.9570312,119.105469 24.9570312,119.308594 L24.9570312,121.699219 C24.9570312,122.699219 25.1992188,123.441406 25.6835938,123.925781 C26.1679688,124.410156 26.9140625,124.652344 27.921875,124.652344 L30.2890625,124.652344 C30.5078125,124.652344 30.6914062,124.726562 30.8398438,124.875 L32.5390625,126.5625 C33.25,127.273438 33.9433594,127.628906 34.6191406,127.628906 Z M34.6191406,125.671875 C34.4355469,125.671875 34.1679688,125.5 33.8164062,125.15625 L31.765625,123.09375 C31.5390625,122.867188 31.2617188,122.753906 30.9335938,122.753906 L28.0039062,122.753906 C27.5195312,122.753906 27.2089844,122.6875 27.0722656,122.554688 C26.9355469,122.421875 26.8632812,122.109375 26.8554688,121.617188 L26.8554688,118.675781 C26.8554688,118.363281 26.7460938,118.089844 26.5273438,117.855469 L24.4648438,115.804688 C24.1132812,115.445312 23.9375,115.173828 23.9375,114.990234 C23.9375,114.806641 24.1132812,114.539062 24.4648438,114.1875 L26.5273438,112.136719 C26.7460938,111.910156 26.859375,111.636719 26.8671875,111.316406 L26.8671875,108.375 C26.8671875,107.875 26.9335938,107.560547 27.0664062,107.431641 C27.1992188,107.302734 27.5117188,107.238281 28.0039062,107.238281 L30.9335938,107.238281 C31.2617188,107.238281 31.5390625,107.125 31.765625,106.898438 L33.8164062,104.835938 C34.1679688,104.484375 34.4355469,104.308594 34.6191406,104.308594 C34.8027344,104.308594 35.0703125,104.484375 35.421875,104.835938 L37.4726562,106.898438 C37.6992188,107.125 37.9765625,107.238281 38.3046875,107.238281 L41.234375,107.238281 C41.734375,107.238281 42.0507812,107.304688 42.1835938,107.4375 C42.3164062,107.570312 42.3828125,107.882812 42.3828125,108.375 L42.3828125,111.316406 C42.3828125,111.636719 42.4921875,111.910156 42.7109375,112.136719 L44.7734375,114.1875 C45.125,114.539062 45.3007812,114.806641 45.3007812,114.990234 C45.3007812,115.173828 45.125,115.445312 44.7734375,115.804688 L42.7109375,117.855469 C42.4921875,118.089844 42.3828125,118.363281 42.3828125,118.675781 L42.3828125,121.617188 C42.3828125,122.109375 42.3164062,122.421875 42.1835938,122.554688 C42.0507812,122.6875 41.734375,122.753906 41.234375,122.753906 L38.3046875,122.753906 C37.9765625,122.753906 37.6992188,122.867188 37.4726562,123.09375 L35.421875,125.15625 C35.0703125,125.5 34.8027344,125.671875 34.6191406,125.671875 Z" id="􀟆"></path>
            </g>
        </g>
    </g>
</svg>