<?xml version="1.0" encoding="UTF-8"?>
<svg width="200px" height="200px" viewBox="0 0 192 192" version="1.1" xmlns="http://www.w3.org/2000/svg" xmlns:xlink="http://www.w3.org/1999/xlink">
    <title>Star</title>
    <g id="New-map" stroke="none" stroke-width="1" fill="none" fill-rule="evenodd">
        <g id="09" transform="translate(-976.000000, -618.000000)" fill="#C5E0B3">
            <g id="BODY" transform="translate(108.000000, 28.000000)">
                <g id="Group-5" transform="translate(868.000000, 590.000000)">
                    <polygon id="Star" points="96 188.16 83.4694855 191.178707 72.1472368 185.019724 59.2623905 184.692435 49.92 175.812901 37.5589028 172.161921 30.833039 161.166961 19.8380793 154.441097 16.1870988 142.08 7.30756488 132.73761 6.98027585 119.852763 0.821293308 108.530514 3.84 96 0.821293308 83.4694855 6.98027585 72.1472368 7.30756488 59.2623905 16.1870988 49.92 19.8380793 37.5589028 30.833039 30.833039 37.5589028 19.8380793 49.92 16.1870988 59.2623905 7.30756488 72.1472368 6.98027585 83.4694855 0.821293308 96 3.84 108.530514 0.821293308 119.852763 6.98027585 132.73761 7.30756488 142.08 16.1870988 154.441097 19.8380793 161.166961 30.833039 172.161921 37.5589028 175.812901 49.92 184.692435 59.2623905 185.019724 72.1472368 191.178707 83.4694855 188.16 96 191.178707 108.530514 185.019724 119.852763 184.692435 132.73761 175.812901 142.08 172.161921 154.441097 161.166961 161.166961 154.441097 172.161921 142.08 175.812901 132.73761 184.692435 119.852763 185.019724 108.530514 191.178707"></polygon>
                </g>
            </g>
        </g>
    </g>
</svg>
