<svg width="31" height="32" viewBox="0 0 31 32" fill="none" xmlns="http://www.w3.org/2000/svg">
<path d="M0.181396 12.7812C0.181396 19.6562 5.77515 25.25 12.6501 25.25C15.3689 25.25 17.8533 24.375 19.9001 22.9062L27.5876 30.6094C27.947 30.9688 28.4158 31.1406 28.9158 31.1406C29.9783 31.1406 30.7126 30.3438 30.7126 29.2969C30.7126 28.7969 30.5251 28.3438 30.197 28.0156L22.5564 20.3281C24.1658 18.2344 25.1189 15.625 25.1189 12.7812C25.1189 5.90625 19.5251 0.3125 12.6501 0.3125C5.77515 0.3125 0.181396 5.90625 0.181396 12.7812ZM2.85327 12.7812C2.85327 7.375 7.2439 2.98438 12.6501 2.98438C18.0564 2.98438 22.447 7.375 22.447 12.7812C22.447 18.1875 18.0564 22.5781 12.6501 22.5781C7.2439 22.5781 2.85327 18.1875 2.85327 12.7812Z" fill="#AAB2BD"/>
</svg>
