<?xml version="1.0" encoding="UTF-8"?>
<svg width="24px" height="24px" viewBox="0 0 19 23" version="1.1" xmlns="http://www.w3.org/2000/svg" xmlns:xlink="http://www.w3.org/1999/xlink">
    <title>􀙦</title>
    <g id="New-map" stroke="none" stroke-width="1" fill="none" fill-rule="evenodd">
        <g id="07-copy" transform="translate(-803.000000, -464.000000)" fill="#323232" fill-rule="nonzero">
            <g id="Menu" transform="translate(777.000000, 321.000000)">
                <path d="M35.3476562,165.527344 C35.4335938,165.527344 35.5449219,165.507812 35.6816406,165.46875 C35.8183594,165.429688 35.9570312,165.375 36.0976562,165.304688 C37.6914062,164.429688 39.0332031,163.648438 40.1230469,162.960938 C41.2128906,162.273438 42.0878906,161.605469 42.7480469,160.957031 C43.4082031,160.308594 43.8886719,159.607422 44.1894531,158.853516 C44.4902344,158.099609 44.640625,157.21875 44.640625,156.210938 L44.640625,147.785156 C44.640625,147.152344 44.5136719,146.695312 44.2597656,146.414062 C44.0058594,146.132812 43.6210938,145.882812 43.1054688,145.664062 C42.7851562,145.53125 42.3203125,145.351562 41.7109375,145.125 C41.2539062,144.955078 40.7716064,144.778564 40.2640381,144.595459 L39.7480469,144.410156 C39.0488281,144.160156 38.3945312,143.927734 37.7851562,143.712891 C37.1757812,143.498047 36.7109375,143.335938 36.390625,143.226562 C36.234375,143.171875 36.0644531,143.126953 35.8808594,143.091797 C35.6972656,143.056641 35.5195312,143.039062 35.3476562,143.039062 C35.1601562,143.039062 34.9765625,143.060547 34.796875,143.103516 C34.6171875,143.146484 34.4453125,143.1875 34.28125,143.226562 C33.96875,143.320312 33.5078125,143.472656 32.8984375,143.683594 C32.2890625,143.894531 31.6347656,144.128906 30.9355469,144.386719 C30.2363281,144.644531 29.5800781,144.888672 28.9667969,145.119141 C28.3535156,145.349609 27.890625,145.53125 27.578125,145.664062 C27.0703125,145.875 26.6855469,146.123047 26.4238281,146.408203 C26.1621094,146.693359 26.03125,147.152344 26.03125,147.785156 L26.03125,156.210938 C26.03125,157.21875 26.1816406,158.097656 26.4824219,158.847656 C26.7832031,159.597656 27.2675781,160.296875 27.9355469,160.945312 C28.6035156,161.59375 29.4824219,162.261719 30.5722656,162.949219 C31.6621094,163.636719 32.9960938,164.421875 34.5742188,165.304688 C34.7148438,165.375 34.8535156,165.429688 34.9902344,165.46875 C35.1269531,165.507812 35.2460938,165.527344 35.3476562,165.527344 Z M35.3476562,163.324219 C35.2539062,163.324219 35.1601562,163.306641 35.0664062,163.271484 C34.9726562,163.236328 34.84375,163.171875 34.6796875,163.078125 C33.40625,162.304688 32.3398438,161.640625 31.4804688,161.085938 C30.6210938,160.53125 29.9355469,160.007812 29.4238281,159.515625 C28.9121094,159.023438 28.5449219,158.486328 28.3222656,157.904297 C28.0996094,157.322266 27.9882812,156.621094 27.9882812,155.800781 L27.9882812,148.125 C27.9882812,147.9375 28.0136719,147.796875 28.0644531,147.703125 C28.1152344,147.609375 28.21875,147.53125 28.375,147.46875 C28.703125,147.335938 29.0839844,147.189453 29.5175781,147.029297 C29.9511719,146.869141 30.4121094,146.703125 30.9003906,146.53125 C31.3886719,146.359375 31.8730469,146.1875 32.3535156,146.015625 C32.8339844,145.84375 33.2871094,145.681641 33.7128906,145.529297 C34.1386719,145.376953 34.5078125,145.238281 34.8203125,145.113281 C34.9296875,145.074219 35.0253906,145.044922 35.1074219,145.025391 C35.1894531,145.005859 35.2695312,144.996094 35.3476562,144.996094 C35.4101562,144.996094 35.484375,145.005859 35.5703125,145.025391 C35.65625,145.044922 35.7539062,145.074219 35.8632812,145.113281 C36.1757812,145.238281 36.5429688,145.380859 36.9648438,145.541016 C37.3867188,145.701172 37.8378906,145.867188 38.3183594,146.039062 C38.7988281,146.210938 39.2792969,146.382812 39.7597656,146.554688 C40.2402344,146.726562 40.6992188,146.892578 41.1367188,147.052734 C41.5742188,147.212891 41.9609375,147.351562 42.296875,147.46875 C42.4609375,147.523438 42.5664062,147.599609 42.6132812,147.697266 C42.6601562,147.794922 42.6835938,147.9375 42.6835938,148.125 L42.6835938,155.800781 C42.6835938,156.628906 42.5722656,157.333984 42.3496094,157.916016 C42.1269531,158.498047 41.7578125,159.037109 41.2421875,159.533203 C40.7265625,160.029297 40.0390625,160.550781 39.1796875,161.097656 C38.3203125,161.644531 37.2578125,162.304688 35.9921875,163.078125 C35.8359375,163.171875 35.7089844,163.236328 35.6113281,163.271484 C35.5136719,163.306641 35.4257812,163.324219 35.3476562,163.324219 Z" id="􀙦"></path>
            </g>
        </g>
    </g>
</svg>
