<?xml version="1.0" encoding="UTF-8"?>
<svg width="200px" height="200px" viewBox="0 0 159 192" version="1.1" xmlns="http://www.w3.org/2000/svg" xmlns:xlink="http://www.w3.org/1999/xlink">
    <title>Combined Shape</title>
    <g id="New-map" stroke="none" stroke-width="1" fill="none" fill-rule="evenodd">
        <g id="09" transform="translate(-717.000000, -323.000000)" fill="#CCD1D9" fill-rule="nonzero">
            <g id="BODY" transform="translate(108.000000, 28.000000)">
                <g id="Group" transform="translate(499.000000, 293.000000)">
                    <path d="M189.600126,2 C191.06864,2 192.587217,2.15007817 194.155856,2.4502345 C195.724496,2.75039083 197.176322,3.13392392 198.511335,3.60083377 C201.248111,4.53465347 205.219773,5.91870766 210.426322,7.75299635 C214.831864,9.30508678 219.512209,10.9646296 224.467357,12.7316249 L228.569262,14.1968851 C234.029385,16.1529334 239.162469,18.0237303 243.968514,19.8092757 C249.175063,21.7436165 253.146725,23.2777488 255.883501,24.4116727 C260.289043,26.2793121 263.576511,28.4137572 265.745907,30.8150078 C267.915302,33.2162585 269,37.1182908 269,42.5211047 L269,42.5211047 L269,114.458572 C269,123.063054 267.71505,130.583637 265.145151,137.020323 C262.575252,143.457009 258.470088,149.44346 252.82966,154.979677 C247.189232,160.515894 239.713161,166.218864 230.401448,172.088588 C221.089736,177.958312 209.625315,184.628452 196.008186,192.09901 C194.806675,192.699323 193.621851,193.166232 192.453715,193.499739 C191.285579,193.833246 190.334383,194 189.600126,194 C188.732368,194 187.714421,193.833246 186.546285,193.499739 C185.378149,193.166232 184.193325,192.699323 182.991814,192.09901 C169.508186,184.561751 158.110516,177.85826 148.798804,171.988536 C139.487091,166.118812 131.977645,160.415842 126.270466,154.879625 C120.563287,149.343408 116.424748,143.373632 113.854849,136.970297 C111.28495,130.566962 110,123.063054 110,114.458572 L110,114.458572 L110,42.5211047 C110,37.1182908 111.118073,33.1995831 113.354219,30.7649818 C115.590365,28.3303804 118.877834,26.2126107 123.216625,24.4116727 C123.979489,24.0876945 124.847247,23.7296849 125.819899,23.337644 L126.569056,23.0372324 C128.875529,22.1168551 131.713026,21.0241941 135.081549,19.7592496 C140.321474,17.7915581 145.928526,15.7071391 151.902708,13.5059927 C157.876889,11.3048463 163.467254,9.30380406 168.673804,7.50286608 C173.880353,5.70192809 177.81864,4.40125065 180.488665,3.60083377 C181.890428,3.26732673 183.358942,2.91714435 184.894207,2.55028661 C186.429471,2.18342887 187.998111,2 189.600126,2 Z" id="Combined-Shape"></path>
                </g>
            </g>
        </g>
    </g>
</svg>
