<?xml version="1.0" encoding="UTF-8"?>
<svg width="24px" height="24px" viewBox="0 0 22 22" version="1.1" xmlns="http://www.w3.org/2000/svg" xmlns:xlink="http://www.w3.org/1999/xlink">
    <title>Square</title>
    <g id="New-map" stroke="none" stroke-width="1" fill="none" fill-rule="evenodd">
        <g id="07-copy" transform="translate(-801.000000, -346.000000)" fill="#323232" fill-rule="nonzero">
            <g id="Menu" transform="translate(777.000000, 321.000000)">
                <path d="M41.828125,46.296875 C43.015625,46.296875 43.9082031,46 44.5058594,45.40625 C45.1035156,44.8125 45.4023438,43.9335938 45.4023438,42.7695312 L45.4023438,29.2578125 C45.4023438,28.09375 45.1035156,27.2148438 44.5058594,26.6210938 C43.9082031,26.0273438 43.015625,25.7304688 41.828125,25.7304688 L28.3984375,25.7304688 C27.21875,25.7304688 26.328125,26.0253906 25.7265625,26.6152344 C25.125,27.2050781 24.8242188,28.0859375 24.8242188,29.2578125 L24.8242188,42.7695312 C24.8242188,43.9414062 25.125,44.8222656 25.7265625,45.4121094 C26.328125,46.0019531 27.21875,46.296875 28.3984375,46.296875 L41.828125,46.296875 Z M41.7460938,44.2929688 L28.4804688,44.2929688 C27.9570312,44.2929688 27.5527344,44.1523438 27.2675781,43.8710938 C26.9824219,43.5898438 26.8398438,43.171875 26.8398438,42.6171875 L26.8398438,29.4101562 C26.8398438,28.8554688 26.9824219,28.4375 27.2675781,28.15625 C27.5527344,27.875 27.9570312,27.734375 28.4804688,27.734375 L41.7460938,27.734375 C42.2695312,27.734375 42.6757812,27.875 42.9648438,28.15625 C43.2539062,28.4375 43.3984375,28.8554688 43.3984375,29.4101562 L43.3984375,42.6171875 C43.3984375,43.171875 43.2539062,43.5898438 42.9648438,43.8710938 C42.6757812,44.1523438 42.2695312,44.2929688 41.7460938,44.2929688 Z" id="Square"></path>
            </g>
        </g>
    </g>
</svg>
