<?xml version="1.0" encoding="UTF-8"?>
<svg width="14px" height="17px" viewBox="0 0 14 17" version="1.1" xmlns="http://www.w3.org/2000/svg" xmlns:xlink="http://www.w3.org/1999/xlink">
    <title>􀉆</title>
    <g id="Mentor" stroke="none" stroke-width="1" fill="none" fill-rule="evenodd">
        <g id="Incoming" transform="translate(-271.000000, -219.000000)" fill="#0F1419" fill-rule="nonzero">
            <g id="Table" transform="translate(209.000000, 160.000000)">
                <g id="001" transform="translate(15.989185, 58.000000)">
                    <path d="M57.1015625,17.6328125 C57.8828125,17.6328125 58.4700521,17.4335938 58.8632813,17.0351562 C59.2565104,16.6367188 59.453125,16.0442708 59.453125,15.2578125 L59.453125,4.078125 C59.453125,3.29166667 59.2565104,2.69791667 58.8632813,2.296875 C58.4700521,1.89583333 57.8828125,1.6953125 57.1015625,1.6953125 L49.234375,1.6953125 C48.4583333,1.6953125 47.8723958,1.89583333 47.4765625,2.296875 C47.0807292,2.69791667 46.8828125,3.29166667 46.8828125,4.078125 L46.8828125,15.2578125 C46.8828125,16.0442708 47.0807292,16.6367188 47.4765625,17.0351562 C47.8723958,17.4335938 48.4583333,17.6328125 49.234375,17.6328125 L57.1015625,17.6328125 Z M57,16.2890625 L49.3359375,16.2890625 C48.9713542,16.2890625 48.6953125,16.1953125 48.5078125,16.0078125 C48.3203125,15.8203125 48.2265625,15.5494792 48.2265625,15.1953125 L48.2265625,4.140625 C48.2265625,3.78645833 48.3203125,3.515625 48.5078125,3.328125 C48.6953125,3.140625 48.9713542,3.046875 49.3359375,3.046875 L57,3.046875 C57.375,3.046875 57.6549479,3.140625 57.8398438,3.328125 C58.0247396,3.515625 58.1171875,3.78645833 58.1171875,4.140625 L58.1171875,15.1953125 C58.1171875,15.5494792 58.0247396,15.8203125 57.8398438,16.0078125 C57.6549479,16.1953125 57.375,16.2890625 57,16.2890625 Z M55.9296875,6.109375 C56.0651042,6.109375 56.1757813,6.0625 56.2617188,5.96875 C56.3476563,5.875 56.390625,5.76302083 56.390625,5.6328125 C56.390625,5.5078125 56.3476563,5.40104167 56.2617188,5.3125 C56.1757813,5.22395833 56.0651042,5.1796875 55.9296875,5.1796875 L50.4375,5.1796875 C50.3020833,5.1796875 50.1901042,5.22395833 50.1015625,5.3125 C50.0130208,5.40104167 49.96875,5.5078125 49.96875,5.6328125 C49.96875,5.76302083 50.0130208,5.875 50.1015625,5.96875 C50.1901042,6.0625 50.3020833,6.109375 50.4375,6.109375 L55.9296875,6.109375 Z M55.9296875,8.65625 C56.0651042,8.65625 56.1757813,8.61067708 56.2617188,8.51953125 C56.3476563,8.42838542 56.390625,8.31510417 56.390625,8.1796875 C56.390625,8.0546875 56.3476563,7.94791667 56.2617188,7.859375 C56.1757813,7.77083333 56.0651042,7.7265625 55.9296875,7.7265625 L50.4375,7.7265625 C50.3020833,7.7265625 50.1901042,7.77083333 50.1015625,7.859375 C50.0130208,7.94791667 49.96875,8.0546875 49.96875,8.1796875 C49.96875,8.31510417 50.0130208,8.42838542 50.1015625,8.51953125 C50.1901042,8.61067708 50.3020833,8.65625 50.4375,8.65625 L55.9296875,8.65625 Z M53.0703125,11.1953125 C53.2057292,11.1953125 53.3177083,11.1523438 53.40625,11.0664062 C53.4947917,10.9804688 53.5390625,10.8723958 53.5390625,10.7421875 C53.5390625,10.6119792 53.4947917,10.5013021 53.40625,10.4101562 C53.3177083,10.3190104 53.2057292,10.2734375 53.0703125,10.2734375 L50.4375,10.2734375 C50.3020833,10.2734375 50.1901042,10.3190104 50.1015625,10.4101562 C50.0130208,10.5013021 49.96875,10.6119792 49.96875,10.7421875 C49.96875,10.8723958 50.0130208,10.9804688 50.1015625,11.0664062 C50.1901042,11.1523438 50.3020833,11.1953125 50.4375,11.1953125 L53.0703125,11.1953125 Z" id="􀉆"></path>
                </g>
            </g>
        </g>
    </g>
</svg>