<svg width="36" height="9" viewBox="0 0 36 9" fill="none" xmlns="http://www.w3.org/2000/svg">
<path d="M4.33765 8.29541C3.65015 8.29541 3.02231 8.1278 2.45412 7.79257C1.88594 7.45166 1.4314 6.99712 1.09049 6.42893C0.75526 5.86075 0.587646 5.23291 0.587646 4.54541C0.587646 3.85223 0.75526 3.22439 1.09049 2.66189C1.4314 2.09371 1.88594 1.642 2.45412 1.30677C3.02231 0.965865 3.65015 0.79541 4.33765 0.79541C5.03083 0.79541 5.65867 0.965865 6.22117 1.30677C6.78935 1.642 7.24106 2.09371 7.57628 2.66189C7.91719 3.22439 8.08765 3.85223 8.08765 4.54541C8.08765 5.23291 7.91719 5.86075 7.57628 6.42893C7.24106 6.99712 6.78935 7.45166 6.22117 7.79257C5.65867 8.1278 5.03083 8.29541 4.33765 8.29541Z" fill="#AAB2BD"/>
<path d="M17.8376 8.29541C17.1501 8.29541 16.5223 8.1278 15.9541 7.79257C15.3859 7.45166 14.9314 6.99712 14.5905 6.42893C14.2553 5.86075 14.0876 5.23291 14.0876 4.54541C14.0876 3.85223 14.2553 3.22439 14.5905 2.66189C14.9314 2.09371 15.3859 1.642 15.9541 1.30677C16.5223 0.965865 17.1501 0.79541 17.8376 0.79541C18.5308 0.79541 19.1587 0.965865 19.7212 1.30677C20.2894 1.642 20.7411 2.09371 21.0763 2.66189C21.4172 3.22439 21.5876 3.85223 21.5876 4.54541C21.5876 5.23291 21.4172 5.86075 21.0763 6.42893C20.7411 6.99712 20.2894 7.45166 19.7212 7.79257C19.1587 8.1278 18.5308 8.29541 17.8376 8.29541Z" fill="#AAB2BD"/>
<path d="M31.3376 8.29541C30.6501 8.29541 30.0223 8.1278 29.4541 7.79257C28.8859 7.45166 28.4314 6.99712 28.0905 6.42893C27.7553 5.86075 27.5876 5.23291 27.5876 4.54541C27.5876 3.85223 27.7553 3.22439 28.0905 2.66189C28.4314 2.09371 28.8859 1.642 29.4541 1.30677C30.0223 0.965865 30.6501 0.79541 31.3376 0.79541C32.0308 0.79541 32.6587 0.965865 33.2212 1.30677C33.7894 1.642 34.2411 2.09371 34.5763 2.66189C34.9172 3.22439 35.0876 3.85223 35.0876 4.54541C35.0876 5.23291 34.9172 5.86075 34.5763 6.42893C34.2411 6.99712 33.7894 7.45166 33.2212 7.79257C32.6587 8.1278 32.0308 8.29541 31.3376 8.29541Z" fill="#AAB2BD"/>
</svg>
