<?xml version="1.0" encoding="UTF-8"?>
<svg width="15px" height="14px" viewBox="0 0 15 14" version="1.1" xmlns="http://www.w3.org/2000/svg" xmlns:xlink="http://www.w3.org/1999/xlink">
    <title>Shape</title>
    <g id="New" stroke="none" stroke-width="1" fill="none" fill-rule="evenodd">
        <g id="Users" transform="translate(-534.000000, -115.000000)" fill="#CCD1D9" fill-rule="nonzero">
            <g id="􀣔-copy" transform="translate(534.146803, 115.690155)">
                <path d="M7.6647997,2.86938477 C7.51191681,2.86938477 7.38281728,2.92204285 7.27750112,3.02735901 C7.17218496,3.13267517 7.11952688,3.25949605 7.11952688,3.40782166 L7.11952688,6.97254944 C7.11952688,7.0472463 7.13250448,7.11905924 7.15845968,7.18798828 C7.18441488,7.25691732 7.2253771,7.32851664 7.28134634,7.40278625 L8.84773733,9.47257996 C8.96109996,9.61955261 9.09091156,9.70498403 9.23717214,9.72887421 C9.38343272,9.75276438 9.5250648,9.71717834 9.66206838,9.62211609 C9.78625458,9.53524272 9.85436473,9.4183375 9.86639883,9.27140045 C9.87843292,9.1244634 9.83506745,8.98295593 9.73630239,8.84687805 L7.60808279,5.98603821 L8.20259572,7.80717468 L8.20259572,3.40782166 C8.20259572,3.25949605 8.15004446,3.13267517 8.04494192,3.02735901 C7.93983938,2.92204285 7.81312531,2.86938477 7.6647997,2.86938477 Z M7.90822317,13.2830811 C8.81348643,13.2830811 9.66753357,13.1089249 10.4703646,12.7606125 C11.2731956,12.4123001 11.9797538,11.933108 12.5900393,11.3230362 C13.2003247,10.7129644 13.6786089,10.0074387 14.0248919,9.20645905 C14.3711748,8.40547943 14.5443163,7.55050659 14.5443163,6.64154053 C14.5443163,5.73257446 14.3711748,4.87761943 14.0248919,4.07667542 C13.6786089,3.2757314 13.2003247,2.56919098 12.5900393,1.95705414 C11.9797538,1.3449173 11.2731956,0.865707397 10.4703646,0.519424438 C9.66753357,0.173141479 8.81348643,0 7.90822317,0 C7.0001828,0 6.14611786,0.172696431 5.34602834,0.518089294 C4.54593882,0.863482157 3.83982564,1.34078725 3.2276888,1.95000458 C2.61555196,2.5592219 2.13612844,3.26353709 1.78941823,4.06295013 C1.44270803,4.86236318 1.26846283,5.71587626 1.26668264,6.62348938 L2.47728445,6.62348938 C2.47899343,5.87388611 2.62062551,5.17135111 2.90218069,4.5158844 C3.18373586,3.86041768 3.57299266,3.2868042 4.06995107,2.79504395 C4.56690949,2.30328369 5.14232097,1.91831716 5.79618551,1.64014435 C6.45005005,1.36197154 7.1540626,1.22288513 7.90822317,1.22288513 C8.65960663,1.22288513 9.36358358,1.36239878 10.020154,1.64142609 C10.6767244,1.92045339 11.252581,2.30743154 11.7477236,2.80236053 C12.2428662,3.29728953 12.6309837,3.87314606 12.912076,4.52993011 C13.1931683,5.18671417 13.3337145,5.89058431 13.3337145,6.64154053 C13.3337145,7.39249674 13.1931683,8.09636688 12.912076,8.75315094 C12.6309837,9.409935 12.2428662,9.98785655 11.7477236,10.4869156 C11.252581,10.9859746 10.6767244,11.3751246 10.020154,11.6543655 C9.36358358,11.9336065 8.65960663,12.0709483 7.90822317,12.066391 C7.31193003,12.066391 6.7452771,11.9762243 6.20826437,11.7958908 C5.67125163,11.6155574 5.17947357,11.3626633 4.7329302,11.0372086 C4.28638682,10.7117538 3.90015635,10.327713 3.57423879,9.88508606 C3.45809906,9.74281311 3.32070384,9.65289561 3.16205312,9.61533356 C3.00340241,9.5777715 2.85183685,9.60812378 2.70735647,9.70639038 C2.56593801,9.79796346 2.48355072,9.9299469 2.4601946,10.1023407 C2.43683848,10.2747345 2.4879656,10.4397227 2.61357595,10.5973053 C3.01803559,11.1292267 3.49667582,11.5968297 4.04949666,12.0001144 C4.60231751,12.4033991 5.20509054,12.7180481 5.85781576,12.9440613 C6.51054098,13.1700745 7.19401011,13.2830811 7.90822317,13.2830811 Z M0.482258811,5.35424805 C0.320332541,5.35424805 0.198870037,5.38912201 0.117871299,5.45886993 C0.0368725601,5.52861786 -0.00238067475,5.61828613 0.000111594129,5.72787476 C0.00260386301,5.83746338 0.0488888565,5.95324707 0.138966575,6.07522583 L1.64607717,8.19490051 C1.75630666,8.34529114 1.88254008,8.42048645 2.02477743,8.42048645 C2.16701477,8.42048645 2.29118317,8.34529114 2.39728261,8.19490051 L3.9098406,6.06913757 C3.99543223,5.9516449 4.03947418,5.83799744 4.04196645,5.72819519 C4.04445872,5.61839294 4.00541911,5.52861786 3.92484762,5.45886993 C3.84427612,5.38912201 3.72302724,5.35424805 3.56110097,5.35424805 L0.482258811,5.35424805 Z" id="Shape"></path>
            </g>
        </g>
    </g>
</svg>