<svg width="12" height="8" viewBox="0 0 12 8" fill="none" xmlns="http://www.w3.org/2000/svg">
<path d="M5.91309 0.45459C5.65283 0.45459 5.43066 0.556152 5.22754 0.765625L0.454102 5.64697C0.289062 5.81201 0.206543 6.00879 0.206543 6.24365C0.206543 6.71973 0.587402 7.10693 1.06348 7.10693C1.29199 7.10693 1.51416 7.00537 1.68555 6.83398L5.90674 2.49219L10.1406 6.83398C10.312 7.00537 10.5278 7.10693 10.769 7.10693C11.2388 7.10693 11.6196 6.71973 11.6196 6.24365C11.6196 6.00879 11.5308 5.81201 11.3721 5.64697L6.59863 0.759277C6.38916 0.556152 6.17334 0.45459 5.91309 0.45459Z" fill="#AAB2BD"/>
</svg>
