<?xml version="1.0" encoding="UTF-8"?>
<svg width="17px" height="17px" viewBox="0 0 17 17" version="1.1" xmlns="http://www.w3.org/2000/svg" xmlns:xlink="http://www.w3.org/1999/xlink">
    <title>􀓤</title>
    <g id="Start" stroke="none" stroke-width="1" fill="none" fill-rule="evenodd">
        <g id="Structure" transform="translate(-693.000000, -175.000000)" fill="#AAB2BD" fill-rule="nonzero">
            <g id="BODY" transform="translate(-53.000000, 0.000000)">
                <g id="Column" transform="translate(389.000000, 80.000000)">
                    <path d="M365.320313,111.078125 C366.417706,111.078125 367.449256,110.868248 368.414963,110.448495 C369.380669,110.028742 370.231149,109.451239 370.966403,108.715985 C371.701657,107.980731 372.277788,107.131623 372.694798,106.16866 C373.111808,105.205697 373.320313,104.175519 373.320313,103.078125 C373.320313,101.980731 373.111808,100.950553 372.694798,99.98759 C372.277788,99.0246271 371.700285,98.1741469 370.962288,97.4361497 C370.224291,96.6981524 369.372439,96.120649 368.406732,95.7036394 C367.441026,95.2866298 366.409476,95.078125 365.312082,95.078125 C364.225662,95.078125 363.199599,95.2866298 362.233893,95.7036394 C361.268186,96.120649 360.416334,96.6981524 359.678337,97.4361497 C358.94034,98.1741469 358.362837,99.0246271 357.945827,99.98759 C357.528817,100.950553 357.320313,101.980731 357.320313,103.078125 C357.320313,104.175519 357.530189,105.205697 357.949942,106.16866 C358.369695,107.131623 358.947199,107.980731 359.682452,108.715985 C360.417706,109.451239 361.268186,110.028742 362.233893,110.448495 C363.199599,110.868248 364.228406,111.078125 365.320313,111.078125 Z M365.312082,102.822981 C364.933481,102.822981 364.589174,102.724216 364.27916,102.526685 C363.969147,102.329154 363.722233,102.061664 363.538419,101.724216 C363.354606,101.386767 363.262699,101.004051 363.262699,100.576067 C363.262699,100.175519 363.354606,99.8092635 363.538419,99.477302 C363.722233,99.1453404 363.969147,98.8805941 364.27916,98.6830633 C364.589174,98.4855324 364.933481,98.386767 365.312082,98.386767 C365.69617,98.386767 366.043221,98.4855324 366.353234,98.6830633 C366.663248,98.8805941 366.910162,99.1453404 367.093975,99.477302 C367.277788,99.8092635 367.369695,100.175519 367.369695,100.576067 C367.369695,101.004051 367.277788,101.388139 367.093975,101.728331 C366.910162,102.068523 366.663248,102.337384 366.353234,102.534915 C366.043221,102.732446 365.69617,102.828468 365.312082,102.822981 Z M368.933481,107.143969 L361.707144,107.143969 C361.531561,107.143969 361.402617,107.093214 361.320313,106.991705 C361.238008,106.890196 361.196856,106.762624 361.196856,106.608989 C361.196856,106.394997 361.27916,106.112419 361.443769,105.761253 C361.608378,105.410087 361.859407,105.060292 362.196856,104.71187 C362.534304,104.363447 362.962288,104.069895 363.480806,103.831211 C363.999325,103.592528 364.60975,103.473187 365.312082,103.473187 C366.019901,103.473187 366.631698,103.592528 367.147473,103.831211 C367.663248,104.069895 368.08986,104.363447 368.427308,104.71187 C368.764757,105.060292 369.017157,105.410087 369.18451,105.761253 C369.351863,106.112419 369.435539,106.394997 369.435539,106.608989 C369.435539,106.762624 369.393015,106.890196 369.307967,106.991705 C369.222919,107.093214 369.09809,107.143969 368.933481,107.143969 Z" id="􀓤"></path>
                </g>
            </g>
        </g>
    </g>
</svg>