<svg width="26" height="29" viewBox="0 0 26 29" fill="none" xmlns="http://www.w3.org/2000/svg">
<path d="M23.9267 2.14807C24.6239 2.74304 25.1565 3.5071 25.4735 4.36701C25.7906 5.22693 25.8814 6.15387 25.7373 7.05898C25.5933 7.96408 25.2191 8.81701 24.6508 9.53599C24.0824 10.255 23.3389 10.8159 22.4915 11.165L22.3418 11.2243L19.6837 12.2962C17.8808 13.0198 15.7061 13.371 13.9306 15.4499C12.3834 17.2614 12.1408 20.0111 11.705 21.84L11.0675 24.4506L11.0396 24.5735C10.8279 25.4659 10.3904 26.2889 9.76922 26.9637C9.14801 27.6384 8.36385 28.1422 7.49196 28.4268C6.62007 28.7114 5.68968 28.7672 4.79001 28.5889C3.89035 28.4106 3.0516 28.0041 2.35418 27.4084C1.65676 26.8128 1.12408 26.0479 0.807207 25.1872C0.490337 24.3266 0.399912 23.3989 0.544602 22.4932C0.689292 21.5875 1.06424 20.7342 1.6335 20.0151C2.20276 19.296 2.94723 18.7352 3.79552 18.3865L3.8082 18.3716L3.88138 18.3461L4.23366 18.2214L6.83545 17.3142C8.50102 16.73 10.5876 16.0394 12.2852 14.0518C12.9229 13.3052 14.005 9.7316 14.3887 8.24707L15.2374 4.97682C15.4496 4.08546 15.8872 3.26354 16.5082 2.5898C17.1291 1.91606 17.9127 1.41307 18.7838 1.12904C19.655 0.845 20.5845 0.78943 21.4832 0.967655C22.382 1.14588 23.2199 1.55192 23.9167 2.14688L23.9267 2.14807Z" fill="#1D1D1D"/>
</svg>
