<?xml version="1.0" encoding="UTF-8"?>
<svg width="13px" height="14px" viewBox="0 0 13 14" version="1.1" xmlns="http://www.w3.org/2000/svg" xmlns:xlink="http://www.w3.org/1999/xlink">
    <title>􀊃</title>
    <g id="Mentor" stroke="none" stroke-width="1" fill="none" fill-rule="evenodd">
        <g id="Incoming" transform="translate(-272.000000, -430.000000)" fill="#0F1419" fill-rule="nonzero">
            <g id="Table" transform="translate(209.000000, 160.000000)">
                <g id="003-copy" transform="translate(0.004812, 266.000000)">
                    <path d="M64.8359349,17.046875 C64.9869766,17.046875 65.1328099,17.0208333 65.2734349,16.96875 C65.4140599,16.9166667 65.5651016,16.84375 65.7265599,16.75 L74.3906224,11.7265625 C74.7083308,11.5494792 74.9322891,11.3841146 75.0624974,11.2304688 C75.1927058,11.0768229 75.2578099,10.890625 75.2578099,10.671875 C75.2578099,10.4583333 75.1927058,10.2734375 75.0624974,10.1171875 C74.9322891,9.9609375 74.7083308,9.79427083 74.3906224,9.6171875 L65.7265599,4.59375 C65.5651016,4.5 65.4140599,4.42708333 65.2734349,4.375 C65.1328099,4.32291667 64.9869766,4.296875 64.8359349,4.296875 C64.5442683,4.296875 64.3098933,4.3984375 64.1328099,4.6015625 C63.9557266,4.8046875 63.8671849,5.08072917 63.8671849,5.4296875 L63.8671849,15.9140625 C63.8671849,16.2630208 63.9557266,16.5390625 64.1328099,16.7421875 C64.3098933,16.9453125 64.5442683,17.046875 64.8359349,17.046875 Z M65.3046849,15.40625 C65.2578099,15.40625 65.2343724,15.3776042 65.2343724,15.3203125 L65.2343724,6.0234375 C65.2343724,5.96614583 65.2578099,5.9375 65.3046849,5.9375 C65.3307266,5.9375 65.3619766,5.94791667 65.3984349,5.96875 L73.3906224,10.59375 C73.4114558,10.5989583 73.4283829,10.6080729 73.4414037,10.6210938 C73.4544245,10.6341146 73.4609349,10.6510417 73.4609349,10.671875 C73.4609349,10.6927083 73.4544245,10.7096354 73.4414037,10.7226562 C73.4283829,10.7356771 73.4114558,10.7473958 73.3906224,10.7578125 L65.3984349,15.3828125 C65.3619766,15.3984375 65.3307266,15.40625 65.3046849,15.40625 Z" id="􀊃"></path>
                </g>
            </g>
        </g>
    </g>
</svg>