<?xml version="1.0" encoding="UTF-8"?>
<svg width="14px" height="14px" viewBox="0 0 14 14" version="1.1" xmlns="http://www.w3.org/2000/svg" xmlns:xlink="http://www.w3.org/1999/xlink">
    <title>􀅼</title>
    <g id="Admin" stroke="none" stroke-width="1" fill="none" fill-rule="evenodd">
        <g id="Search" transform="translate(-1229.000000, -33.000000)" fill="#CCD1D9" fill-rule="nonzero">
            <g id="Group" transform="translate(807.000000, 16.000000)">
                <path d="M429.005722,33.3547362 C429.204069,33.3547362 429.387158,33.3032422 429.55499,33.2002543 C429.722823,33.0972664 429.858233,32.9618563 429.961221,32.7940242 C430.064209,32.626192 430.115702,32.4469167 430.115702,32.2561983 L430.115702,25.287349 L436.901462,25.287349 C437.092181,25.287349 437.273363,25.2377622 437.44501,25.1385887 C437.616656,25.0394151 437.752066,24.9059123 437.85124,24.7380801 C437.950413,24.5702479 438,24.3833439 438,24.1773681 C438,23.979021 437.950413,23.7959313 437.85124,23.6280992 C437.752066,23.460267 437.616656,23.324857 437.44501,23.221869 C437.273363,23.1188811 437.092181,23.0673872 436.901462,23.0673872 L430.115702,23.0673872 L430.115702,16.0985378 C430.115702,15.9001907 430.064209,15.7190083 429.961221,15.5549905 C429.858233,15.3909727 429.722823,15.2574698 429.55499,15.1544819 C429.387158,15.051494 429.204069,15 429.005722,15 C428.807374,15 428.622378,15.051494 428.450731,15.1544819 C428.279085,15.2574698 428.143675,15.3909727 428.044501,15.5549905 C427.945327,15.7190083 427.895741,15.9001907 427.895741,16.0985378 L427.895741,23.0673872 L421.109981,23.0673872 C420.911634,23.0673872 420.730451,23.1188811 420.566434,23.221869 C420.402416,23.324857 420.267006,23.460267 420.160203,23.6280992 C420.053401,23.7959313 420,23.979021 420,24.1773681 C420,24.3833439 420.053401,24.5702479 420.160203,24.7380801 C420.267006,24.9059123 420.402416,25.0394151 420.566434,25.1385887 C420.730451,25.2377622 420.911634,25.287349 421.109981,25.287349 L427.895741,25.287349 L427.895741,32.2561983 C427.895741,32.4469167 427.945327,32.626192 428.044501,32.7940242 C428.143675,32.9618563 428.279085,33.0972664 428.450731,33.2002543 C428.622378,33.3032422 428.807374,33.3547362 429.005722,33.3547362 Z" id="􀅼" transform="translate(429.000000, 24.177368) rotate(45.000000) translate(-429.000000, -24.177368) "></path>
            </g>
        </g>
    </g>
</svg>