<?xml version="1.0" encoding="UTF-8"?>
<svg width="21px" height="21px" viewBox="0 0 21 21" version="1.1" xmlns="http://www.w3.org/2000/svg" xmlns:xlink="http://www.w3.org/1999/xlink">
    <title>Notepad</title>
    <g id="User" stroke="none" stroke-width="1"  fill-rule="evenodd">
        <g id="02" transform="translate(-596.000000, -1348.000000)" fill-rule="nonzero">
            <path d="M600.2,1348 L612.8,1348 C615.119596,1348 617,1349.8804 617,1352.2 L617,1364.8 C617,1367.1196 615.119596,1369 612.8,1369 L600.2,1369 C597.880404,1369 596,1367.1196 596,1364.8 L596,1352.2 C596,1349.8804 597.880404,1348 600.2,1348 Z M600.2,1350.1 C599.040202,1350.1 598.1,1351.0402 598.1,1352.2 L598.1,1364.8 C598.1,1365.9598 599.040202,1366.9 600.2,1366.9 L612.8,1366.9 C613.959798,1366.9 614.9,1365.9598 614.9,1364.8 L614.9,1352.2 C614.9,1351.0402 613.959798,1350.1 612.8,1350.1 L600.2,1350.1 Z M602.3,1355.35 C601.720101,1355.35 601.25,1354.8799 601.25,1354.3 C601.25,1353.7201 601.720101,1353.25 602.3,1353.25 L607.55,1353.25 C608.129899,1353.25 608.6,1353.7201 608.6,1354.3 C608.6,1354.8799 608.129899,1355.35 607.55,1355.35 L602.3,1355.35 Z M602.3,1363.75 C601.720101,1363.75 601.25,1363.2799 601.25,1362.7 C601.25,1362.1201 601.720101,1361.65 602.3,1361.65 L605.45,1361.65 C606.029899,1361.65 606.5,1362.1201 606.5,1362.7 C606.5,1363.2799 606.029899,1363.75 605.45,1363.75 L602.3,1363.75 Z M602.3,1359.55 C601.720101,1359.55 601.25,1359.0799 601.25,1358.5 C601.25,1357.9201 601.720101,1357.45 602.3,1357.45 L610.7,1357.45 C611.279899,1357.45 611.75,1357.9201 611.75,1358.5 C611.75,1359.0799 611.279899,1359.55 610.7,1359.55 L602.3,1359.55 Z" id="Notepad"></path>
        </g>
    </g>
</svg>
