<?xml version="1.0" encoding="UTF-8"?>
<svg width="19px" height="27px" viewBox="0 0 19 27" version="1.1" xmlns="http://www.w3.org/2000/svg" xmlns:xlink="http://www.w3.org/1999/xlink">
    <title>Shape</title>
    <g id="New" stroke="none" stroke-width="1" fill="none" fill-rule="evenodd">
        <g id="Status" transform="translate(-725.000000, -257.000000)" fill="#FFFFFF" fill-rule="nonzero">
            <g id="Disabled-Copy" transform="translate(638.000000, 184.000000)">
                <g id="ô€¡-copy" transform="translate(87.924018, 73.593719)">
                    <path d="M2.5397644,25.4187927 L14.9527588,25.4187927 C15.8088175,25.4187927 16.4463399,25.2001851 16.8653259,24.76297 C17.2843119,24.3257548 17.4938049,23.6462911 17.4938049,22.7245789 L17.4938049,13.1491394 C17.4938049,12.2284241 17.2843119,11.5496724 16.8653259,11.1128845 C16.4463399,10.6760966 15.8088175,10.4577026 14.9527588,10.4577026 L2.77709961,10.4824829 C1.92274984,10.4824829 1.24631246,10.6987762 0.747787476,11.1313629 C0.249262492,11.5639496 0,12.2365417 0,13.1491394 L0,22.7245789 C0,23.6462911 0.211771647,24.3257548 0.635314941,24.76297 C1.05885824,25.2001851 1.69367472,25.4187927 2.5397644,25.4187927 Z M2.10397339,11.3630371 L4.38140869,11.3630371 L4.38140869,6.99295044 C4.38140869,5.94605509 4.58150228,5.06446838 4.98168945,4.34819031 C5.38187663,3.63191223 5.91344198,3.09133911 6.5763855,2.72647095 C7.23932902,2.36160278 7.96258545,2.1791687 8.74615479,2.1791687 C9.53898112,2.1791687 10.2647654,2.36160278 10.9235077,2.72647095 C11.58225,3.09133911 12.1117147,3.63191223 12.5119019,4.34819031 C12.912089,5.06446838 13.1121826,5.94605509 13.1121826,6.99295044 L13.1121826,11.3630371 L15.3883362,11.3630371 L15.3883362,7.25186157 C15.3883362,6.03349813 15.2059021,4.96908569 14.8410339,4.05862427 C14.4761658,3.14816284 13.9782817,2.39289856 13.3473816,1.79283142 C12.7164815,1.19276428 12.005366,0.743942261 11.214035,0.446365356 C10.4227041,0.148788452 9.60007731,0 8.74615479,0 C7.89322917,0 7.07088725,0.148788452 6.27912903,0.446365356 C5.48737081,0.743942261 4.77807109,1.19276428 4.15122986,1.79283142 C3.52438863,2.39289856 3.02646891,3.14816284 2.6574707,4.05862427 C2.28847249,4.96908569 2.10397339,6.03349813 2.10397339,7.25186157 L2.10397339,11.3630371 Z" id="Shape"></path>
                </g>
            </g>
        </g>
    </g>
</svg>