<?xml version="1.0" encoding="UTF-8"?>
<svg width="11px" height="14px" viewBox="0 0 11 14" version="1.1" xmlns="http://www.w3.org/2000/svg" xmlns:xlink="http://www.w3.org/1999/xlink">
    <title>Shape</title>
    <g id="New" stroke="none" stroke-width="1" fill="none" fill-rule="evenodd">
        <g id="Status" transform="translate(-869.000000, -98.000000)" fill="#AAB2BD" fill-rule="nonzero">
            <g id="Help" transform="translate(72.000000, 96.000000)">
                <g id="01" transform="translate(797.884766, 0.000000)">
                    <g id="ô€¡" transform="translate(0.000000, 2.201172)">
                        <path d="M1.3125,13.3369141 L7.8203125,13.3369141 C8.70214844,13.3369141 9.1328125,12.8994141 9.1328125,11.9423828 L9.1328125,6.92480469 C9.1328125,6.06347656 8.77734375,5.61914062 8.04589844,5.54394531 L8.04589844,3.82128906 C8.04589844,1.24414062 6.35742188,0 4.56640625,0 C2.77539062,0 1.08691406,1.24414062 1.08691406,3.82128906 L1.08691406,5.578125 C0.416992188,5.68066406 0,6.11816406 0,6.92480469 L0,11.9423828 C0,12.8994141 0.430664062,13.3369141 1.3125,13.3369141 Z M2.1875,3.67773438 C2.1875,1.96191406 3.28808594,1.05273438 4.56640625,1.05273438 C5.84472656,1.05273438 6.9453125,1.96191406 6.9453125,3.67773438 L6.9453125,5.53710938 L2.1875,5.54394531 L2.1875,3.67773438 Z" id="Shape"></path>
                    </g>
                </g>
            </g>
        </g>
    </g>
</svg>