<?xml version="1.0" encoding="UTF-8"?>
<svg width="49px" height="40px" viewBox="0 0 49 40" version="1.1" xmlns="http://www.w3.org/2000/svg" xmlns:xlink="http://www.w3.org/1999/xlink">
    <title>Camera</title>
    <g id="User" stroke="none" stroke-width="1" fill="none" fill-rule="evenodd">
        <g id="Not-found" transform="translate(-695.000000, -416.000000)" fill="#AAB2BD" fill-rule="nonzero">
            <g id="BODY" transform="translate(16.000000, 20.000000)">
                <g id="Error" transform="translate(581.000000, 396.304688)">
                    <path d="M108.480469,34.4921875 L128.460938,34.4921875 L125.960938,31.9726562 L108.96875,31.9726562 C107.419271,31.9726562 106.227865,31.5690104 105.394531,30.7617188 C104.561198,29.9544271 104.144531,28.7369792 104.144531,27.109375 L104.144531,10.3710938 L101.449219,7.65625 C101.449219,8.07291667 101.449219,8.48958333 101.449219,8.90625 C101.449219,9.32291667 101.449219,9.73958333 101.449219,10.15625 L101.449219,27.5195312 C101.449219,29.7330729 102.067708,31.4485677 103.304688,32.6660156 C104.541667,33.8834635 106.266927,34.4921875 108.480469,34.4921875 Z M127.972656,4.21875 L107.933594,4.21875 L110.453125,6.7578125 L127.503906,6.7578125 C129.040365,6.7578125 130.22526,7.15820312 131.058594,7.95898438 C131.891927,8.75976562 132.308594,9.98046875 132.308594,11.6210938 L132.308594,26.9921875 C132.308594,27.265625 132.292318,27.516276 132.259766,27.7441406 C132.227214,27.9720052 132.171875,28.1835938 132.09375,28.3789062 L134.417969,30.703125 C134.821615,29.8177083 135.023438,28.828125 135.023438,27.734375 L135.023438,11.1914062 C135.023438,8.99088542 134.401693,7.27864583 133.158203,6.0546875 C131.914714,4.83072917 130.186198,4.21875 127.972656,4.21875 Z M134.59375,14.375 L134.59375,17.5390625 L143.421875,10.3125 C143.526042,10.2213542 143.620443,10.1529948 143.705078,10.1074219 C143.789714,10.061849 143.877604,10.0390625 143.96875,10.0390625 C144.229167,10.0390625 144.359375,10.2083333 144.359375,10.546875 L144.359375,28.1640625 C144.359375,28.515625 144.229167,28.6914062 143.96875,28.6914062 C143.877604,28.6914062 143.789714,28.6653646 143.705078,28.6132812 C143.620443,28.5611979 143.526042,28.4895833 143.421875,28.3984375 L134.59375,21.171875 L134.59375,24.3554688 L142.132812,30.6835938 C142.510417,30.9830729 142.891276,31.2239583 143.275391,31.40625 C143.659505,31.5885417 144.033854,31.6796875 144.398438,31.6796875 C145.166667,31.6796875 145.788411,31.422526 146.263672,30.9082031 C146.738932,30.3938802 146.976562,29.7265625 146.976562,28.90625 L146.976562,9.82421875 C146.976562,8.99088542 146.738932,8.31705729 146.263672,7.80273438 C145.788411,7.28841146 145.166667,7.03125 144.398438,7.03125 C144.033854,7.03125 143.659505,7.12565104 143.275391,7.31445312 C142.891276,7.50325521 142.510417,7.74088542 142.132812,8.02734375 L134.59375,14.375 Z M135.511719,38.4765625 C135.759115,38.7239583 136.061849,38.8476562 136.419922,38.8476562 C136.777995,38.8476562 137.080729,38.7239583 137.328125,38.4765625 C137.588542,38.2161458 137.715495,37.9101562 137.709223,37.5585938 C137.702474,37.2070312 137.575521,36.9010417 137.328125,36.640625 L101.039062,0.37109375 C100.791667,0.123697917 100.485677,0 100.121094,0 C99.7565104,0 99.4440104,0.123697917 99.1835938,0.37109375 C98.9492188,0.618489583 98.8320312,0.924479167 98.8320312,1.2890625 C98.8320312,1.65364583 98.9492188,1.953125 99.1835938,2.1875 L135.511719,38.4765625 Z" id="Camera"></path>
                </g>
            </g>
        </g>
    </g>
</svg>