<?xml version="1.0" encoding="UTF-8"?>
<svg width="15px" height="13px" viewBox="0 0 15 13" version="1.1" xmlns="http://www.w3.org/2000/svg" xmlns:xlink="http://www.w3.org/1999/xlink">
    <title>Shape</title>
    <g id="New" stroke="none" stroke-width="1" fill="none" fill-rule="evenodd">
        <g id="Status" transform="translate(-725.000000, -99.000000)" fill="#1790FF" fill-rule="nonzero">
            <g id="Help" transform="translate(72.000000, 96.000000)">
                <g id="01-copy-3" transform="translate(653.043085, 0.000000)">
                    <g id="􀢤" transform="translate(0.000000, 3.716797)">
                        <path d="M2.91785253,1.93945312 C2.63660253,2.22070312 2.65418066,2.58984375 2.88855566,2.79492188 C3.12879003,3.01171875 3.46863378,3.01171875 3.74988378,2.7421875 C4.62293066,1.79296875 5.88855566,1.1953125 7.28894628,1.1953125 C9.76746191,1.1953125 11.7713682,3.01757812 12.0936338,5.35546875 L11.2088682,5.35546875 C10.7635557,5.35546875 10.6405088,5.68359375 10.8983213,6.046875 L12.2928525,8.015625 C12.50379,8.30859375 12.8260557,8.30859375 13.0428525,8.015625 L14.4373838,6.05273438 C14.7010557,5.68945313 14.5780088,5.35546875 14.1268369,5.35546875 L13.3065244,5.35546875 C12.9608213,2.38476562 10.3826963,0 7.28894628,0 C5.56629003,0 3.99597753,0.76171875 2.91785253,1.93945312 Z M7.29480566,7.03125 C7.61121191,7.03125 7.79285253,6.84960938 7.80457128,6.515625 L7.89246191,3.66796875 C7.90418066,3.32226562 7.64636816,3.07617188 7.28894628,3.07617188 C6.92566503,3.07617188 6.67957128,3.32226562 6.68543066,3.66210938 L6.77332128,6.515625 C6.77918066,6.84375 6.96668066,7.03125 7.29480566,7.03125 Z M0.134649406,6.05859375 C-0.123163094,6.421875 -0.00597559402,6.75585938 0.445196281,6.75585938 L1.27722753,6.75585938 C1.61707128,9.7265625 4.19519628,12.1113281 7.28894628,12.1113281 C9.01746191,12.1113281 10.5877744,11.3496094 11.6717588,10.1660156 C11.9471494,9.88476562 11.9295713,9.515625 11.6951963,9.3046875 C11.4549619,9.08789062 11.1209775,9.09375 10.8338682,9.36328125 C9.96668066,10.3183594 8.70105566,10.9160156 7.28894628,10.9160156 C4.81629003,10.9160156 2.80652441,9.09960938 2.48425878,6.75585938 L3.36316503,6.75585938 C3.80847753,6.75585938 3.93152441,6.42773438 3.67371191,6.06445312 L2.27918066,4.09570312 C2.06824316,3.80273438 1.74597753,3.80273438 1.53504003,4.09570312 L0.134649406,6.05859375 Z M7.29480566,8.97070312 C7.66980566,8.97070312 7.98035253,8.70117188 7.98035253,8.32617188 C7.98035253,7.95703125 7.67566503,7.6875 7.29480566,7.6875 C6.91394628,7.6875 6.60925878,7.96289062 6.60925878,8.32617188 C6.60925878,8.6953125 6.91980566,8.97070312 7.29480566,8.97070312 Z" id="Shape"></path>
                    </g>
                </g>
            </g>
        </g>
    </g>
</svg>