<?xml version="1.0" encoding="UTF-8"?>
<svg width="29px" height="24px" viewBox="0 0 29 24" version="1.1" xmlns="http://www.w3.org/2000/svg" xmlns:xlink="http://www.w3.org/1999/xlink">
    <title>Shape</title>
    <g id="New" stroke="none" stroke-width="1" fill="none" fill-rule="evenodd">
        <g id="Status" transform="translate(-153.000000, -857.000000)" fill="#FFFFFF" fill-rule="nonzero">
            <g id="Active-Copy-2" transform="translate(72.000000, 783.000000)">
                <g id="􀢤" transform="translate(81.919317, 74.617188)">
                    <path d="M0.237481175,11.4023438 C0.0109186747,11.7304688 -0.0535344503,12.0195312 0.0441217997,12.2695312 C0.14177805,12.5195312 0.401543675,12.6445312 0.823418675,12.6445312 L2.35857492,12.6445312 C2.51482492,14.0507812 2.91716867,15.3671875 3.56560617,16.59375 C4.21404367,17.8203125 5.04998117,18.8945312 6.07341867,19.8164062 C7.09685617,20.7382812 8.25701242,21.4609375 9.55388742,21.984375 C10.8507624,22.5078125 12.2257624,22.7695312 13.6788874,22.7695312 C15.3429499,22.7695312 16.9015437,22.4257812 18.3546687,21.7382812 C19.8077937,21.0507812 21.0499812,20.1289062 22.0812312,18.9726562 C22.3156062,18.7226562 22.4269343,18.453125 22.4152155,18.1640625 C22.4034968,17.875 22.2882624,17.640625 22.0695124,17.4609375 C21.8429499,17.2734375 21.594903,17.1933594 21.3253718,17.2207031 C21.0558405,17.2480469 20.8077937,17.3789062 20.5812312,17.6132812 C19.7374812,18.5585938 18.719903,19.3085938 17.5284968,19.8632812 C16.3370905,20.4179688 15.0538874,20.6953125 13.6788874,20.6953125 C12.4913874,20.6953125 11.3741999,20.4902344 10.3273249,20.0800781 C9.28044992,19.6699219 8.34490305,19.0976562 7.5206843,18.3632812 C6.69646555,17.6289062 6.0206843,16.7773438 5.49334055,15.8085938 C4.9659968,14.8398438 4.62810617,13.7851562 4.47966867,12.6445312 L6.13201242,12.6445312 C6.54607492,12.6445312 6.80388742,12.5195312 6.90544992,12.2695312 C7.00701242,12.0195312 6.94451242,11.734375 6.71794992,11.4140625 L4.13982492,7.78125 C3.95232492,7.5078125 3.7316218,7.37109375 3.47771555,7.37109375 C3.2238093,7.37109375 2.99919992,7.5078125 2.80388742,7.78125 L0.237481175,11.4023438 Z M5.29998117,3.78515625 C5.05779367,4.03515625 4.9425593,4.3046875 4.95427805,4.59375 C4.9659968,4.8828125 5.08123117,5.1171875 5.29998117,5.296875 C5.52654367,5.4765625 5.77459055,5.5546875 6.0441218,5.53125 C6.31365305,5.5078125 6.56169992,5.37890625 6.78826242,5.14453125 C7.63201242,4.20703125 8.64763742,3.46289062 9.83513742,2.91210938 C11.0226374,2.36132812 12.3038874,2.0859375 13.6788874,2.0859375 C14.8663874,2.0859375 15.9835749,2.2890625 17.0304499,2.6953125 C18.0773249,3.1015625 19.0128718,3.66992188 19.8370905,4.40039062 C20.6613093,5.13085938 21.3370905,5.984375 21.8644343,6.9609375 C22.391778,7.9375 22.7296687,8.9921875 22.8781062,10.125 L21.2257624,10.125 C20.8195124,10.125 20.5616999,10.25 20.4523249,10.5 C20.3429499,10.75 20.4054499,11.0351562 20.6398249,11.3554688 L23.2062312,14.9882812 C23.3937312,15.2539062 23.6163874,15.3886719 23.8741999,15.3926607 C24.1320124,15.3964844 24.3546687,15.2617188 24.5421687,14.9882812 L27.1202937,11.3671875 C27.3546687,11.0390625 27.4191218,10.75 27.313653,10.5 C27.2081843,10.25 26.9484187,10.125 26.5343562,10.125 L24.9874812,10.125 C24.8312312,8.71875 24.4308405,7.40234375 23.7863093,6.17578125 C23.141778,4.94921875 22.3077937,3.875 21.2843562,2.953125 C20.2609187,2.03125 19.1007624,1.30859375 17.8038874,0.78515625 C16.5070124,0.26171875 15.1320124,0 13.6788874,0 C12.0226374,0 10.469903,0.341796875 9.0206843,1.02539062 C7.57146555,1.70898438 6.33123117,2.62890625 5.29998117,3.78515625 Z M13.6906062,13.3007812 C14.2843562,13.3007812 14.5890437,12.9921875 14.6046687,12.375 L14.7687312,6.7734375 C14.7765437,6.4609375 14.6749812,6.20507812 14.4640437,6.00585938 C14.2531062,5.80664062 13.9913874,5.70703125 13.6788874,5.70703125 C13.3585749,5.70703125 13.0968562,5.8046875 12.8937312,6 C12.6906062,6.1953125 12.5929499,6.44921875 12.6007624,6.76171875 L12.7531062,12.375 C12.7687312,12.9921875 13.0812312,13.3007812 13.6906062,13.3007812 Z M13.6906062,16.9335938 C14.0343562,16.9335938 14.329278,16.8203125 14.5753718,16.59375 C14.8214655,16.3671875 14.9445124,16.0859375 14.9445124,15.75 C14.9445124,15.4140625 14.8214655,15.1328125 14.5753718,14.90625 C14.329278,14.6796875 14.0343562,14.5664062 13.6906062,14.5664062 C13.3468562,14.5664062 13.0538874,14.6816406 12.8116999,14.9121094 C12.5695124,15.1425781 12.4484187,15.421875 12.4484187,15.75 C12.4484187,16.078125 12.5714655,16.3574219 12.8175593,16.5878906 C13.063653,16.8183594 13.3546687,16.9335938 13.6906062,16.9335938 Z" id="Shape"></path>
                </g>
            </g>
        </g>
    </g>
</svg>