<?xml version="1.0" encoding="UTF-8"?>
<svg width="32px" height="32px" viewBox="0 0 32 32" version="1.1" xmlns="http://www.w3.org/2000/svg" xmlns:xlink="http://www.w3.org/1999/xlink">
    <title>Telegram</title>
    <defs>
        <linearGradient x1="66.6705202%" y1="16.6705202%" x2="41.6705202%" y2="75%" id="linearGradient-1">
            <stop stop-color="#37AEE2" offset="0%"></stop>
            <stop stop-color="#1E96C8" offset="100%"></stop>
        </linearGradient>
    </defs>
    <g id="User" stroke="none" stroke-width="1" fill="none" fill-rule="evenodd">
        <g id="Profile" transform="translate(-490.000000, -421.000000)" fill-rule="nonzero">
            <g id="Telegram" transform="translate(490.000000, 421.000000)">
                <circle id="Oval" fill="url(#linearGradient-1)" cx="16" cy="16" r="16"></circle>
                <path d="M6.69388993,15.7872002 L17.5361115,11.4302509 C18.6063737,10.976402 22.2359586,9.52408556 22.2359586,9.52408556 C22.2359586,9.52408556 23.9111516,8.88869713 23.7715522,10.4317833 C23.7250191,11.0671718 23.352754,13.2910313 22.9804889,15.6964304 L21.8171604,22.8218579 C21.8171604,22.8218579 21.7240941,23.8657103 20.9330307,24.0472498 C20.1419673,24.2287894 18.8390394,23.4118614 18.6063737,23.2303219 C18.4202412,23.0941672 15.1163882,21.0518472 13.9065266,20.0533797 C13.5807946,19.7810703 13.2085295,19.2364517 13.9530597,18.6010632 C15.6282528,17.1033619 17.6291778,15.2425815 18.8390394,14.0625744 C19.3974371,13.5179557 19.9558348,12.2471789 17.6291778,13.7902651 L11.0680051,18.1018295 C11.0680051,18.1018295 10.3234748,18.5556783 8.92748064,18.1472144 C7.53148645,17.7387504 5.90282656,17.1941317 5.90282656,17.1941317 C5.90282656,17.1941317 4.7860312,16.5133584 6.69388993,15.7872002 Z" id="Path" fill="#FFFFFF"></path>
            </g>
        </g>
    </g>
</svg>