<?xml version="1.0" encoding="UTF-8"?>
<svg width="33px" height="33px" viewBox="0 0 33 33" version="1.1" xmlns="http://www.w3.org/2000/svg" xmlns:xlink="http://www.w3.org/1999/xlink">
    <title>WhatsApp</title>
    <defs>
        <linearGradient x1="49.9999397%" y1="100%" x2="49.9999397%" y2="7.4594898e-06%" id="linearGradient-1">
            <stop stop-color="#1FAF38" offset="0%"></stop>
            <stop stop-color="#60D669" offset="100%"></stop>
        </linearGradient>
    </defs>
    <g id="User" stroke="none" stroke-width="1" fill="none" fill-rule="evenodd">
        <g id="Profile" transform="translate(-451.000000, -421.000000)">
            <g id="WhatsApp" transform="translate(451.066502, 421.046408)">
                <path d="M15.9778453,0.564397592 C7.50004034,0.564397592 0.600073509,7.46191982 0.596559393,15.9400303 L0.596559393,15.9400303 C0.595719061,18.6495666 1.30366065,21.295314 2.64994906,23.6271591 L2.64994906,23.6271591 L0.467759401,31.5951117 L8.6217309,29.4570776 C10.8681678,30.6814415 13.3975674,31.3275805 15.9716574,31.3284208 L15.9716574,31.3284208 L15.9785328,31.3284208 C24.4553446,31.3284208 31.3558462,24.4302874 31.3593615,15.9520241 L31.3593615,15.9520241 C31.3609646,11.8434878 29.7625002,7.98032833 26.858236,5.07400158 L26.858236,5.07400158 C23.9545831,2.16767483 20.092646,0.566307438 15.9778453,0.564397592 Z" id="Fill-1" fill="url(#linearGradient-1)"></path>
                <path d="M11.9319824,9.19227819 C11.6338173,8.52925617 11.3198386,8.51596364 11.036112,8.50442817 C10.8041039,8.49442058 10.5384062,8.49509809 10.2732432,8.49509809 C10.0077747,8.49509809 9.57645511,8.59480207 9.21167458,8.99319588 C8.84666488,9.39151329 7.8180984,10.3546103 7.8180984,12.3132716 C7.8180984,14.2720857 9.2448295,16.1648192 9.44368263,16.4306697 C9.64276495,16.6961382 12.1978329,20.8440174 16.2443375,22.4397317 C19.6073465,23.7659285 20.2916824,23.5021406 21.0216254,23.4357544 C21.7515685,23.3694446 23.3769235,22.472963 23.7087783,21.5433265 C24.0405567,20.6138428 24.0405567,19.8170552 23.9410155,19.6505167 C23.8414744,19.4847421 23.5760822,19.3851245 23.1779176,19.1860422 C22.779753,18.9869599 20.8225431,18.0237101 20.4576098,17.8910141 C20.0926001,17.758318 19.827208,17.6919318 19.5617394,18.0905547 C19.2962709,18.488643 18.5337841,19.3851245 18.3014705,19.6505167 C18.0692332,19.9166728 17.836996,19.9497513 17.4388314,19.7507454 C17.0406667,19.5510519 15.7584727,19.1311151 14.2373953,17.7748954 C13.0539021,16.7197439 12.2548991,15.416618 12.0226618,15.0180714 C11.7903482,14.6198304 11.9976811,14.404247 12.1974509,14.2056995 C12.3761361,14.0273963 12.5956155,13.7409958 12.7946215,13.5085294 C12.9933218,13.2761394 13.059708,13.110212 13.1924041,12.8447434 C13.3251002,12.5788929 13.2587903,12.3464265 13.1592492,12.1473442 C13.059708,11.9482619 12.2859914,9.97944018 11.9319824,9.19227819" id="Fill-2" fill="#FFFFFF"></path>
            </g>
        </g>
    </g>
</svg>